<?xml version="1.0" encoding="UTF-8" standalone="no"?>
<!DOCTYPE svg  PUBLIC '-//W3C//DTD SVG 1.1//EN'  'http://www.w3.org/Graphics/SVG/1.1/DTD/svg11.dtd'>
<svg xmlns="http://www.w3.org/2000/svg" xmlns:xlink="http://www.w3.org/1999/xlink" version="1.1">
 <metadata>Created by FontForge 20150612 at Fri Jul  8 22:24:53 2016
 By Etienne
Copyright \(c\)2015, HK Grotesk designed by Alfredo Marco Pradil \(ammpradil@gmail.com\). HK Grotesk is a trademark of Alfredo Marco Pradil.</metadata>
 <defs>
  <font id="HKGrotesk-MediumItalic" horiz-adv-x="570">
   <font-face slope="-10" underline-position="-100" font-weight="500" descent="-300" panose-1="0 0 6 0 0 0 0 0 0 0" stemh="63" units-per-em="1000" unicode-range="U+0020-FB02" stemv="93" bbox="-327 -250 1125 1094" x-height="488" underline-thickness="40" font-family="HK Grotesk Medium Italic" ascent="700" font-style="italic" cap-height="690"/>
   <missing-glyph d="M50 0v466h400v-466h-400zM100 50h300v366h-300v-366z" horiz-adv-x="500"/>
   <glyph glyph-name="f_f_i" horiz-adv-x="794" unicode="ffi" d="M38 0l72 407h-74l14 81h75l9 52c18 102 108 160 205 160c53 0 104 -19 138 -53c44 38 104 53 152 53c53 0 106 -20 155 -60l-58 -65c-5 4 -33 44 -100 44c-66 0 -113 -38 -122 -88l-7 -43h270l-86 -488h-87l71 407h-183l-71 -407h-92l72 407h-190l-72 -407h-91zM215 488 h191l9 52c3 13 6 29 12 44c-12 12 -37 35 -88 35c-65 0 -107 -38 -116 -88z"/>
   <glyph glyph-name="f_f_l" horiz-adv-x="799" unicode="ffl" d="M671 -10c-54 0 -79 33 -69 92l91 509c-10 14 -33 28 -74 28c-57 0 -106 -33 -115 -86l-8 -45h82l-14 -81h-83l-71 -407h-92l72 407h-194l-71 -407h-92l72 407h-74l15 81h74l10 55c18 104 107 157 205 157c64 0 109 -26 139 -52c43 36 94 52 159 52c78 0 119 -32 152 -73 l-91 -525c-5 -23 0 -27 18 -27s35 5 35 5l-11 -77s-39 -13 -65 -13zM211 488l195 3c7 37 12 66 19 90c-10 11 -35 38 -90 38c-64 0 -108 -37 -116 -87z"/>
   <glyph glyph-name="fi" horiz-adv-x="497" unicode="fi" d="M36 0l72 407h-73l14 81l75 3c19 116 84 209 220 209c70 0 117 -26 144 -60l-57 -65c-22 29 -47 44 -90 44c-82 0 -116 -60 -129 -134l259 3l-86 -488h-87l72 407h-172l-71 -407h-91z"/>
   <glyph glyph-name="fl" horiz-adv-x="512" unicode="fl" d="M381 -10c-53 0 -78 41 -65 112l88 492c-14 15 -37 26 -71 26c-64 0 -102 -28 -111 -82l-9 -50h93l-14 -81h-94l-71 -407h-91l72 407h-73l14 81h74l11 62c17 97 100 150 204 150c55 0 107 -20 156 -73l-90 -525c-4 -20 2 -27 21 -27c15 0 32 5 32 5l-11 -78 c-8 -2 -38 -12 -65 -12z"/>
   <glyph glyph-name="arrowright" horiz-adv-x="1069" unicode="-&gt;" d="M571 53l-42 73l292 147h-777v74h783l-298 147l42 72l461 -254z"/>
   <glyph glyph-name="arrowleft" horiz-adv-x="1069" unicode="&lt;-" d="M498 53l-461 259l461 254l42 -72l-298 -147h783v-74h-777l292 -147z"/>
   <glyph glyph-name=".notdef" d="M50 0v466h400v-466h-400zM100 50h300v366h-300v-366z" horiz-adv-x="500"/>
   <glyph glyph-name="A" horiz-adv-x="642" unicode="A" d="M-33 0l388 690h75l143 -690h-104l-27 150h-287l-79 -150h-109zM203 236h222l-56 310z"/>
   <glyph glyph-name="Aacute" horiz-adv-x="642" unicode="Á" d="M353 751l132 141h104l-163 -141h-73zM-33 0l388 690h75l143 -690h-104l-27 150h-287l-79 -150h-109zM203 236h222l-56 310z"/>
   <glyph glyph-name="Abreve" horiz-adv-x="642" unicode="Ă" d="M409 760c-94 0 -146 50 -131 135l70 -6c-8 -45 22 -70 64 -70c47 0 89 31 97 76l70 -6c-16 -87 -81 -129 -170 -129zM-33 0l388 690h75l143 -690h-104l-27 150h-287l-79 -150h-109zM203 236h222l-56 310z"/>
   <glyph glyph-name="uni1EAE" horiz-adv-x="642" unicode="Ắ" d="M389 953l132 141h104l-163 -141h-73zM409 760c-94 0 -146 50 -131 135l70 -6c-8 -45 22 -70 64 -70c47 0 89 31 97 76l70 -6c-16 -87 -81 -129 -170 -129zM-33 0l388 690h75l143 -690h-104l-27 150h-287l-79 -150h-109zM203 236h222l-56 310z"/>
   <glyph glyph-name="uni1EB0" horiz-adv-x="642" unicode="Ằ" d="M406 950l-106 144h100l81 -144h-75zM409 760c-94 0 -146 50 -131 135l70 -6c-8 -45 22 -70 64 -70c47 0 89 31 97 76l70 -6c-16 -87 -81 -129 -170 -129zM-33 0l388 690h75l143 -690h-104l-27 150h-287l-79 -150h-109zM203 236h222l-56 310z"/>
   <glyph glyph-name="uni1EB4" horiz-adv-x="642" unicode="Ẵ" d="M521 959c-87 0 -95 74 -146 74c-35 0 -54 -32 -59 -70l-62 7c13 76 55 123 120 123c96 0 99 -76 148 -76c36 0 55 31 63 76l66 -6c-15 -86 -61 -128 -130 -128zM409 760c-94 0 -146 50 -131 135l70 -6c-8 -45 22 -70 64 -70c47 0 89 31 97 76l70 -6 c-16 -87 -81 -129 -170 -129zM-33 0l388 690h75l143 -690h-104l-27 150h-287l-79 -150h-109zM203 236h222l-56 310z"/>
   <glyph glyph-name="uni01CD" horiz-adv-x="642" unicode="Ǎ" d="M400 730l-130 162h80l61 -84l93 84h84zM-33 0l388 690h75l143 -690h-104l-27 150h-287l-79 -150h-109zM203 236h222l-56 310z"/>
   <glyph glyph-name="Acircumflex" horiz-adv-x="642" unicode="Â" d="M241 738l188 173l131 -173h-80l-62 88l-93 -88h-84zM-33 0l388 690h75l143 -690h-104l-27 150h-287l-79 -150h-109zM203 236h222l-56 310z"/>
   <glyph glyph-name="uni1EA4" horiz-adv-x="642" unicode="Ấ" d="M389 952l132 141h104l-163 -141h-73zM241 738l188 173l131 -173h-80l-62 88l-93 -88h-84zM-33 0l388 690h75l143 -690h-104l-27 150h-287l-79 -150h-109zM203 236h222l-56 310z"/>
   <glyph glyph-name="uni1EA6" horiz-adv-x="642" unicode="Ầ" d="M406 949l-106 144h100l81 -144h-75zM241 738l188 173l131 -173h-80l-62 88l-93 -88h-84zM-33 0l388 690h75l143 -690h-104l-27 150h-287l-79 -150h-109zM203 236h222l-56 310z"/>
   <glyph glyph-name="uni1EAA" horiz-adv-x="642" unicode="Ẫ" d="M521 959c-87 0 -95 74 -146 74c-35 0 -54 -32 -59 -70l-62 7c13 76 55 123 120 123c96 0 99 -76 148 -76c36 0 55 31 63 76l66 -6c-15 -86 -61 -128 -130 -128zM241 738l188 173l131 -173h-80l-62 88l-93 -88h-84zM-33 0l388 690h75l143 -690h-104l-27 150h-287l-79 -150 h-109zM203 236h222l-56 310z"/>
   <glyph glyph-name="Adieresis" horiz-adv-x="642" unicode="Ä" d="M281 774l15 88h87l-15 -88h-87zM447 774l15 88h87l-15 -88h-87zM-33 0l388 690h75l143 -690h-104l-27 150h-287l-79 -150h-109zM203 236h222l-56 310z"/>
   <glyph glyph-name="Agrave" horiz-adv-x="642" unicode="À" d="M370 748l-106 144h100l81 -144h-75zM-33 0l388 690h75l143 -690h-104l-27 150h-287l-79 -150h-109zM203 236h222l-56 310z"/>
   <glyph glyph-name="Amacron" horiz-adv-x="642" unicode="Ā" d="M274 775l12 64h266l-11 -64h-267zM-33 0l388 690h75l143 -690h-104l-27 150h-287l-79 -150h-109zM203 236h222l-56 310z"/>
   <glyph glyph-name="Aogonek" horiz-adv-x="642" unicode="Ą" d="M536 -127l46 -39c-29 -33 -62 -54 -109 -54c-62 0 -99 43 -88 107c12 69 94 104 124 113h-40l-27 150h-287l-79 -150h-109l388 690h75l143 -690c-4 -1 -118 -42 -131 -117c-5 -31 9 -43 29 -43c28 0 48 13 65 33zM203 236h222l-56 310z"/>
   <glyph glyph-name="Aring" horiz-adv-x="642" unicode="Å" d="M430 686l143 -686h-104l-27 150h-287l-79 -150h-109l360 639c-54 6 -86 53 -77 110c10 53 60 95 115 95c58 0 98 -48 88 -109c-3 -18 -11 -34 -23 -49zM302 736c-4 -26 12 -43 36 -43c30 0 58 24 63 56c4 24 -10 41 -37 41c-31 0 -56 -23 -62 -54zM203 236h222l-56 310z "/>
   <glyph glyph-name="Atilde" horiz-adv-x="642" unicode="Ã" d="M485 757c-87 0 -95 74 -146 74c-35 0 -54 -32 -59 -70l-62 7c13 76 55 123 120 123c96 0 99 -76 148 -76c36 0 55 31 63 76l66 -6c-15 -86 -61 -128 -130 -128zM-33 0l388 690h75l143 -690h-104l-27 150h-287l-79 -150h-109zM203 236h222l-56 310z"/>
   <glyph glyph-name="AE" horiz-adv-x="882" unicode="Æ" d="M-46 0l387 690h563l-15 -84h-365l-39 -219h322l-15 -84h-322l-37 -216h365l-16 -87h-459l26 150h-210l-80 -150h-105zM185 233h179l66 373h-39z"/>
   <glyph glyph-name="B" horiz-adv-x="594" unicode="B" d="M40 0l122 690h209c108 0 212 -62 189 -192c-10 -58 -53 -105 -107 -136c61 -25 100 -97 87 -175c-22 -119 -141 -187 -253 -187h-247zM207 398h118c64 0 128 29 142 105c11 64 -38 99 -106 99h-119zM153 91h148c69 0 132 45 146 119c11 63 -35 102 -105 102h-150z"/>
   <glyph glyph-name="C" horiz-adv-x="705" unicode="C" d="M329 -10c-221 0 -296 167 -261 362c33 188 161 349 377 349c134 0 227 -69 258 -193l-93 -30c-11 97 -82 132 -173 132c-159 0 -249 -124 -274 -267c-26 -144 18 -262 174 -262c95 0 171 42 226 140l86 -43c-76 -125 -191 -188 -320 -188z"/>
   <glyph glyph-name="Cacute" horiz-adv-x="705" unicode="Ć" d="M385 751l132 141h104l-163 -141h-73zM329 -10c-221 0 -296 167 -261 362c33 188 161 349 377 349c134 0 227 -69 258 -193l-93 -30c-11 97 -82 132 -173 132c-159 0 -249 -124 -274 -267c-26 -144 18 -262 174 -262c95 0 171 42 226 140l86 -43 c-76 -125 -191 -188 -320 -188z"/>
   <glyph glyph-name="Ccaron" horiz-adv-x="705" unicode="Č" d="M432 730l-130 162h80l61 -84l93 84h84zM329 -10c-221 0 -296 167 -261 362c33 188 161 349 377 349c134 0 227 -69 258 -193l-93 -30c-11 97 -82 132 -173 132c-159 0 -249 -124 -274 -267c-26 -144 18 -262 174 -262c95 0 171 42 226 140l86 -43 c-76 -125 -191 -188 -320 -188z"/>
   <glyph glyph-name="Ccedilla" horiz-adv-x="705" unicode="Ç" d="M337 81c95 0 171 42 226 140l86 -43c-68 -112 -168 -175 -281 -186l-50 -55c57 -16 84 -46 76 -89c-9 -53 -61 -92 -110 -92c-47 0 -76 32 -83 67l54 19c1 -16 12 -28 30 -28c22 0 48 19 53 45c3 16 -11 25 -33 33l-63 18l59 81c-199 13 -266 174 -233 361 c33 188 161 349 377 349c134 0 227 -69 258 -193l-93 -30c-11 97 -82 132 -173 132c-159 0 -249 -124 -274 -267c-26 -144 18 -262 174 -262z"/>
   <glyph glyph-name="Cdotaccent" horiz-adv-x="705" unicode="Ċ" d="M441 767c-40 0 -65 34 -58 75c6 34 37 60 73 60c40 0 67 -33 59 -74c-5 -34 -39 -61 -74 -61zM329 -10c-221 0 -296 167 -261 362c33 188 161 349 377 349c134 0 227 -69 258 -193l-93 -30c-11 97 -82 132 -173 132c-159 0 -249 -124 -274 -267 c-26 -144 18 -262 174 -262c95 0 171 42 226 140l86 -43c-76 -125 -191 -188 -320 -188z"/>
   <glyph glyph-name="D" horiz-adv-x="679" unicode="D" d="M35 0l122 690h185c228 0 331 -128 291 -357c-39 -213 -184 -333 -410 -333h-188zM148 89h75c156 0 282 77 315 263c29 168 -34 249 -210 249h-90z"/>
   <glyph glyph-name="Eth" horiz-adv-x="681" unicode="Ð" d="M35 0l55 313h-55l13 70h55l54 307h183c227 0 333 -127 293 -357c-39 -214 -187 -333 -412 -333h-186zM145 87h76c157 0 287 80 320 265c29 167 -37 252 -215 252h-91l-38 -221h206l-13 -70h-206z"/>
   <glyph glyph-name="Dcaron" horiz-adv-x="679" unicode="Ď" d="M419 730l-130 162h80l61 -84l93 84h84zM35 0l122 690h185c228 0 331 -128 291 -357c-39 -213 -184 -333 -410 -333h-188zM148 89h75c156 0 282 77 315 263c29 168 -34 249 -210 249h-90z"/>
   <glyph glyph-name="Dcroat" horiz-adv-x="681" unicode="Đ" d="M35 0l55 313h-55l13 70h55l54 307h183c227 0 333 -127 293 -357c-39 -214 -187 -333 -412 -333h-186zM145 87h76c157 0 287 80 320 265c29 167 -37 252 -215 252h-91l-38 -221h206l-13 -70h-206z"/>
   <glyph glyph-name="E" horiz-adv-x="598" unicode="E" d="M38 0l122 690h453l-16 -87h-355l-38 -214h322l-15 -88h-322l-37 -211h355l-16 -90h-453z"/>
   <glyph glyph-name="Eacute" horiz-adv-x="598" unicode="É" d="M332 751l132 141h104l-163 -141h-73zM38 0l122 690h453l-16 -87h-355l-38 -214h322l-15 -88h-322l-37 -211h355l-16 -90h-453z"/>
   <glyph glyph-name="Ecaron" horiz-adv-x="598" unicode="Ě" d="M379 730l-130 162h80l61 -84l93 84h84zM38 0l122 690h453l-16 -87h-355l-38 -214h322l-15 -88h-322l-37 -211h355l-16 -90h-453z"/>
   <glyph glyph-name="Ecircumflex" horiz-adv-x="598" unicode="Ê" d="M220 738l188 173l131 -173h-80l-62 88l-93 -88h-84zM38 0l122 690h453l-16 -87h-355l-38 -214h322l-15 -88h-322l-37 -211h355l-16 -90h-453z"/>
   <glyph glyph-name="uni1EBE" horiz-adv-x="598" unicode="Ế" d="M367 952l132 141h104l-163 -141h-73zM220 738l188 173l131 -173h-80l-62 88l-93 -88h-84zM38 0l122 690h453l-16 -87h-355l-38 -214h322l-15 -88h-322l-37 -211h355l-16 -90h-453z"/>
   <glyph glyph-name="uni1EC0" horiz-adv-x="598" unicode="Ề" d="M384 949l-106 144h100l81 -144h-75zM220 738l188 173l131 -173h-80l-62 88l-93 -88h-84zM38 0l122 690h453l-16 -87h-355l-38 -214h322l-15 -88h-322l-37 -211h355l-16 -90h-453z"/>
   <glyph glyph-name="uni1EC4" horiz-adv-x="598" unicode="Ễ" d="M499 959c-87 0 -95 74 -146 74c-35 0 -54 -32 -59 -70l-62 7c13 76 55 123 120 123c96 0 99 -76 148 -76c36 0 55 31 63 76l66 -6c-15 -86 -61 -128 -130 -128zM220 738l188 173l131 -173h-80l-62 88l-93 -88h-84zM38 0l122 690h453l-16 -87h-355l-38 -214h322l-15 -88 h-322l-37 -211h355l-16 -90h-453z"/>
   <glyph glyph-name="Edieresis" horiz-adv-x="598" unicode="Ë" d="M259 774l15 88h87l-15 -88h-87zM425 774l15 88h87l-15 -88h-87zM38 0l122 690h453l-16 -87h-355l-38 -214h322l-15 -88h-322l-37 -211h355l-16 -90h-453z"/>
   <glyph glyph-name="Edotaccent" horiz-adv-x="598" unicode="Ė" d="M388 767c-40 0 -65 34 -58 75c6 34 37 60 73 60c40 0 67 -33 59 -74c-5 -34 -39 -61 -74 -61zM38 0l122 690h453l-16 -87h-355l-38 -214h322l-15 -88h-322l-37 -211h355l-16 -90h-453z"/>
   <glyph glyph-name="Egrave" horiz-adv-x="598" unicode="È" d="M349 748l-106 144h100l81 -144h-75zM38 0l122 690h453l-16 -87h-355l-38 -214h322l-15 -88h-322l-37 -211h355l-16 -90h-453z"/>
   <glyph glyph-name="Emacron" horiz-adv-x="598" unicode="Ē" d="M253 775l12 64h266l-11 -64h-267zM38 0l122 690h453l-16 -87h-355l-38 -214h322l-15 -88h-322l-37 -211h355l-16 -90h-453z"/>
   <glyph glyph-name="Eogonek" horiz-adv-x="598" unicode="Ę" d="M597 603h-355l-38 -214h322l-15 -88h-322l-37 -211h355l-16 -90c-4 -1 -118 -42 -131 -117c-5 -31 9 -43 29 -43c28 0 48 13 65 33l46 -39c-29 -33 -62 -54 -109 -54c-62 0 -99 43 -88 107c12 69 94 104 124 113h-389l122 690h453z"/>
   <glyph glyph-name="uni1EBC" horiz-adv-x="598" unicode="Ẽ" d="M464 757c-87 0 -95 74 -146 74c-35 0 -54 -32 -59 -70l-62 7c13 76 55 123 120 123c96 0 99 -76 148 -76c36 0 55 31 63 76l66 -6c-15 -86 -61 -128 -130 -128zM38 0l122 690h453l-16 -87h-355l-38 -214h322l-15 -88h-322l-37 -211h355l-16 -90h-453z"/>
   <glyph glyph-name="F" horiz-adv-x="564" unicode="F" d="M38 0l122 690h463l-16 -87h-365l-38 -214h322l-15 -88h-322l-53 -301h-98z"/>
   <glyph glyph-name="G" horiz-adv-x="751" unicode="G" d="M329 -10c-221 0 -296 167 -261 362c33 188 161 349 377 349c134 0 226 -69 258 -193l-92 -30c-20 92 -83 135 -174 135c-158 0 -249 -127 -274 -270c-26 -144 18 -264 173 -264c111 0 217 78 248 206l-159 -3l14 78h251l-64 -360h-78l15 111c-54 -72 -130 -121 -234 -121 z"/>
   <glyph glyph-name="Gbreve" horiz-adv-x="751" unicode="Ğ" d="M463 760c-94 0 -146 50 -131 135l70 -6c-8 -45 22 -70 64 -70c47 0 89 31 97 76l70 -6c-16 -87 -81 -129 -170 -129zM329 -10c-221 0 -296 167 -261 362c33 188 161 349 377 349c134 0 226 -69 258 -193l-92 -30c-20 92 -83 135 -174 135c-158 0 -249 -127 -274 -270 c-26 -144 18 -264 173 -264c111 0 217 78 248 206l-159 -3l14 78h251l-64 -360h-78l15 111c-54 -72 -130 -121 -234 -121z"/>
   <glyph glyph-name="Gcommaaccent" horiz-adv-x="751" unicode="Ģ" d="M329 -10c-221 0 -296 167 -261 362c33 188 161 349 377 349c134 0 226 -69 258 -193l-92 -30c-20 92 -83 135 -174 135c-158 0 -249 -127 -274 -270c-26 -144 18 -264 173 -264c111 0 217 78 248 206l-159 -3l14 78h251l-64 -360h-78l15 111c-54 -72 -130 -121 -234 -121 zM170 -219l90 165h110l-142 -165h-58z"/>
   <glyph glyph-name="Gdotaccent" horiz-adv-x="751" unicode="Ġ" d="M464 767c-40 0 -65 34 -58 75c6 34 37 60 73 60c40 0 67 -33 59 -74c-5 -34 -39 -61 -74 -61zM329 -10c-221 0 -296 167 -261 362c33 188 161 349 377 349c134 0 226 -69 258 -193l-92 -30c-20 92 -83 135 -174 135c-158 0 -249 -127 -274 -270 c-26 -144 18 -264 173 -264c111 0 217 78 248 206l-159 -3l14 78h251l-64 -360h-78l15 111c-54 -72 -130 -121 -234 -121z"/>
   <glyph glyph-name="H" horiz-adv-x="700" unicode="H" d="M38 0l122 690h98l-54 -301h329l53 301h98l-122 -690h-98l53 301h-328l-53 -301h-98z"/>
   <glyph glyph-name="Hbar" horiz-adv-x="700" unicode="Ħ" d="M712 569l-9 -50h-50l-91 -519h-98l53 301h-328l-53 -301h-98l92 519h-50l9 50h50l21 121h98l-22 -121h329l21 121h98l-22 -121h50zM533 389l23 130h-329l-23 -130h329z"/>
   <glyph glyph-name="I" horiz-adv-x="267" unicode="I" d="M35 0l122 690h97l-122 -690h-97z"/>
   <glyph glyph-name="Iacute" horiz-adv-x="267" unicode="Í" d="M166 751l132 141h104l-163 -141h-73zM35 0l122 690h97l-122 -690h-97z"/>
   <glyph glyph-name="uni01CF" horiz-adv-x="267" unicode="Ǐ" d="M213 730l-130 162h80l61 -84l93 84h84zM35 0l122 690h97l-122 -690h-97z"/>
   <glyph glyph-name="Icircumflex" horiz-adv-x="267" unicode="Î" d="M54 738l188 173l131 -173h-80l-62 88l-93 -88h-84zM35 0l122 690h97l-122 -690h-97z"/>
   <glyph glyph-name="Idieresis" horiz-adv-x="267" unicode="Ï" d="M93 774l15 88h87l-15 -88h-87zM259 774l15 88h87l-15 -88h-87zM35 0l122 690h97l-122 -690h-97z"/>
   <glyph glyph-name="Idotaccent" horiz-adv-x="267" unicode="İ" d="M222 767c-40 0 -65 34 -58 75c6 34 37 60 73 60c40 0 67 -33 59 -74c-5 -34 -39 -61 -74 -61zM35 0l122 690h97l-122 -690h-97z"/>
   <glyph glyph-name="Igrave" horiz-adv-x="267" unicode="Ì" d="M183 748l-106 144h100l81 -144h-75zM35 0l122 690h97l-122 -690h-97z"/>
   <glyph glyph-name="Imacron" horiz-adv-x="267" unicode="Ī" d="M87 775l12 64h266l-11 -64h-267zM35 0l122 690h97l-122 -690h-97z"/>
   <glyph glyph-name="Iogonek" horiz-adv-x="267" unicode="Į" d="M30 -160c28 0 48 13 65 33l46 -39c-29 -33 -62 -54 -109 -54c-62 0 -99 43 -88 107c12 69 94 104 124 113h-33l122 690h97l-122 -690c-4 -1 -118 -42 -131 -117c-5 -31 9 -43 29 -43z"/>
   <glyph glyph-name="Itilde" horiz-adv-x="267" unicode="Ĩ" d="M298 757c-87 0 -95 74 -146 74c-35 0 -54 -32 -59 -70l-62 7c13 76 55 123 120 123c96 0 99 -76 148 -76c36 0 55 31 63 76l66 -6c-15 -86 -61 -128 -130 -128zM35 0l122 690h97l-122 -690h-97z"/>
   <glyph glyph-name="J" horiz-adv-x="519" unicode="J" d="M183 -10c-135 0 -198 100 -186 216l97 6c-8 -72 15 -134 96 -134c103 0 139 71 156 167l64 358h-260l15 87h357l-79 -448c-26 -149 -103 -252 -260 -252z"/>
   <glyph glyph-name="K" horiz-adv-x="683" unicode="K" d="M38 0l122 690h98l-70 -385l434 385h131l-321 -278l189 -412h-115l-150 346l-187 -161l-33 -185h-98z"/>
   <glyph glyph-name="Kcommaaccent" horiz-adv-x="683" unicode="Ķ" d="M38 0l122 690h98l-70 -385l434 385h131l-321 -278l189 -412h-115l-150 346l-187 -161l-33 -185h-98zM137 -219l90 165h110l-142 -165h-58z"/>
   <glyph glyph-name="L" horiz-adv-x="506" unicode="L" d="M38 0l122 690h98l-106 -600h295l-16 -90h-393z"/>
   <glyph glyph-name="Lacute" horiz-adv-x="506" unicode="Ĺ" d="M175 751l132 141h104l-163 -141h-73zM38 0l122 690h98l-106 -600h295l-16 -90h-393z"/>
   <glyph glyph-name="Lcaron" horiz-adv-x="506" unicode="Ľ" d="M38 0l122 690h98l-106 -600h295l-16 -90h-393zM305 490l98 200h110l-149 -200h-59z"/>
   <glyph glyph-name="Lcommaaccent" horiz-adv-x="506" unicode="Ļ" d="M38 0l122 690h98l-106 -600h295l-16 -90h-393zM48 -219l90 165h110l-142 -165h-58z"/>
   <glyph glyph-name="Lslash" horiz-adv-x="506" unicode="Ł" d="M152 90h295l-16 -90h-393l41 227l-96 -82h-75l184 158l68 387h98l-51 -288l97 84h75l-185 -160z"/>
   <glyph glyph-name="M" horiz-adv-x="849" unicode="M" d="M38 0l122 690h143l99 -527l286 527h145l-122 -690h-96l103 576l-281 -516h-101l-100 516l-103 -576h-95z"/>
   <glyph glyph-name="N" horiz-adv-x="681" unicode="N" d="M38 0l122 690h114l197 -550l98 550h96l-122 -690h-115l-197 550l-98 -550h-95z"/>
   <glyph glyph-name="Nacute" horiz-adv-x="681" unicode="Ń" d="M372 751l132 141h104l-163 -141h-73zM38 0l122 690h114l197 -550l98 550h96l-122 -690h-115l-197 550l-98 -550h-95z"/>
   <glyph glyph-name="Ncaron" horiz-adv-x="681" unicode="Ň" d="M420 730l-130 162h80l61 -84l93 84h84zM38 0l122 690h114l197 -550l98 550h96l-122 -690h-115l-197 550l-98 -550h-95z"/>
   <glyph glyph-name="Ncommaaccent" horiz-adv-x="681" unicode="Ņ" d="M38 0l122 690h114l197 -550l98 550h96l-122 -690h-115l-197 550l-98 -550h-95zM135 -219l90 165h110l-142 -165h-58z"/>
   <glyph glyph-name="Eng" horiz-adv-x="680" unicode="Ŋ" d="M315 -180l14 78h25c64 0 94 47 87 76l-210 577l-98 -551h-96l122 690h114l198 -551l98 551h95l-123 -693c-11 -67 -42 -177 -175 -177h-51z"/>
   <glyph glyph-name="Ntilde" horiz-adv-x="681" unicode="Ñ" d="M504 757c-87 0 -95 74 -146 74c-35 0 -54 -32 -59 -70l-62 7c13 76 55 123 120 123c96 0 99 -76 148 -76c36 0 55 31 63 76l66 -6c-15 -86 -61 -128 -130 -128zM38 0l122 690h114l197 -550l98 550h96l-122 -690h-115l-197 550l-98 -550h-95z"/>
   <glyph glyph-name="O" horiz-adv-x="745" unicode="O" d="M325 -10c-221 0 -294 168 -260 362c33 187 160 348 376 348c221 0 295 -168 261 -362c-33 -187 -161 -348 -377 -348zM332 78c161 0 248 130 273 274c24 137 -14 260 -170 260c-160 0 -247 -130 -273 -274c-24 -137 15 -260 170 -260z"/>
   <glyph glyph-name="Oacute" horiz-adv-x="745" unicode="Ó" d="M405 751l132 141h104l-163 -141h-73zM325 -10c-221 0 -294 168 -260 362c33 187 160 348 376 348c221 0 295 -168 261 -362c-33 -187 -161 -348 -377 -348zM332 78c161 0 248 130 273 274c24 137 -14 260 -170 260c-160 0 -247 -130 -273 -274c-24 -137 15 -260 170 -260 z"/>
   <glyph glyph-name="uni01D1" horiz-adv-x="745" unicode="Ǒ" d="M452 730l-130 162h80l61 -84l93 84h84zM325 -10c-221 0 -294 168 -260 362c33 187 160 348 376 348c221 0 295 -168 261 -362c-33 -187 -161 -348 -377 -348zM332 78c161 0 248 130 273 274c24 137 -14 260 -170 260c-160 0 -247 -130 -273 -274 c-24 -137 15 -260 170 -260z"/>
   <glyph glyph-name="Ocircumflex" horiz-adv-x="745" unicode="Ô" d="M293 738l188 173l131 -173h-80l-62 88l-93 -88h-84zM325 -10c-221 0 -294 168 -260 362c33 187 160 348 376 348c221 0 295 -168 261 -362c-33 -187 -161 -348 -377 -348zM332 78c161 0 248 130 273 274c24 137 -14 260 -170 260c-160 0 -247 -130 -273 -274 c-24 -137 15 -260 170 -260z"/>
   <glyph glyph-name="uni1ED0" horiz-adv-x="745" unicode="Ố" d="M440 952l132 141h104l-163 -141h-73zM293 738l188 173l131 -173h-80l-62 88l-93 -88h-84zM325 -10c-221 0 -294 168 -260 362c33 187 160 348 376 348c221 0 295 -168 261 -362c-33 -187 -161 -348 -377 -348zM332 78c161 0 248 130 273 274c24 137 -14 260 -170 260 c-160 0 -247 -130 -273 -274c-24 -137 15 -260 170 -260z"/>
   <glyph glyph-name="uni1ED2" horiz-adv-x="745" unicode="Ồ" d="M457 949l-106 144h100l81 -144h-75zM293 738l188 173l131 -173h-80l-62 88l-93 -88h-84zM325 -10c-221 0 -294 168 -260 362c33 187 160 348 376 348c221 0 295 -168 261 -362c-33 -187 -161 -348 -377 -348zM332 78c161 0 248 130 273 274c24 137 -14 260 -170 260 c-160 0 -247 -130 -273 -274c-24 -137 15 -260 170 -260z"/>
   <glyph glyph-name="uni1ED6" horiz-adv-x="745" unicode="Ỗ" d="M572 959c-87 0 -95 74 -146 74c-35 0 -54 -32 -59 -70l-62 7c13 76 55 123 120 123c96 0 99 -76 148 -76c36 0 55 31 63 76l66 -6c-15 -86 -61 -128 -130 -128zM293 738l188 173l131 -173h-80l-62 88l-93 -88h-84zM325 -10c-221 0 -294 168 -260 362 c33 187 160 348 376 348c221 0 295 -168 261 -362c-33 -187 -161 -348 -377 -348zM332 78c161 0 248 130 273 274c24 137 -14 260 -170 260c-160 0 -247 -130 -273 -274c-24 -137 15 -260 170 -260z"/>
   <glyph glyph-name="Odieresis" horiz-adv-x="745" unicode="Ö" d="M332 774l15 88h87l-15 -88h-87zM498 774l15 88h87l-15 -88h-87zM325 -10c-221 0 -294 168 -260 362c33 187 160 348 376 348c221 0 295 -168 261 -362c-33 -187 -161 -348 -377 -348zM332 78c161 0 248 130 273 274c24 137 -14 260 -170 260c-160 0 -247 -130 -273 -274 c-24 -137 15 -260 170 -260z"/>
   <glyph glyph-name="Ograve" horiz-adv-x="745" unicode="Ò" d="M422 748l-106 144h100l81 -144h-75zM325 -10c-221 0 -294 168 -260 362c33 187 160 348 376 348c221 0 295 -168 261 -362c-33 -187 -161 -348 -377 -348zM332 78c161 0 248 130 273 274c24 137 -14 260 -170 260c-160 0 -247 -130 -273 -274c-24 -137 15 -260 170 -260z "/>
   <glyph glyph-name="Ohungarumlaut" horiz-adv-x="745" unicode="Ő" d="M321 744l133 148h98l-159 -148h-72zM484 744l133 148h105l-165 -148h-73zM325 -10c-221 0 -294 168 -260 362c33 187 160 348 376 348c221 0 295 -168 261 -362c-33 -187 -161 -348 -377 -348zM332 78c161 0 248 130 273 274c24 137 -14 260 -170 260 c-160 0 -247 -130 -273 -274c-24 -137 15 -260 170 -260z"/>
   <glyph glyph-name="Omacron" horiz-adv-x="745" unicode="Ō" d="M326 775l12 64h266l-11 -64h-267zM325 -10c-221 0 -294 168 -260 362c33 187 160 348 376 348c221 0 295 -168 261 -362c-33 -187 -161 -348 -377 -348zM332 78c161 0 248 130 273 274c24 137 -14 260 -170 260c-160 0 -247 -130 -273 -274c-24 -137 15 -260 170 -260z "/>
   <glyph glyph-name="Oslash" horiz-adv-x="745" unicode="Ø" d="M636 631c68 -66 87 -175 66 -293c-33 -187 -161 -348 -377 -348c-56 0 -103 11 -141 30l-15 -20h-81l43 58c-68 67 -87 176 -66 294c33 187 160 348 376 348c57 0 104 -11 142 -31l15 21h81zM162 338c-13 -77 -7 -150 29 -199l335 454c-24 12 -54 19 -91 19 c-160 0 -247 -130 -273 -274zM605 352c13 77 7 150 -29 199l-335 -454c24 -12 55 -19 91 -19c161 0 248 130 273 274z"/>
   <glyph glyph-name="Otilde" horiz-adv-x="745" unicode="Õ" d="M537 757c-87 0 -95 74 -146 74c-35 0 -54 -32 -59 -70l-62 7c13 76 55 123 120 123c96 0 99 -76 148 -76c36 0 55 31 63 76l66 -6c-15 -86 -61 -128 -130 -128zM325 -10c-221 0 -294 168 -260 362c33 187 160 348 376 348c221 0 295 -168 261 -362 c-33 -187 -161 -348 -377 -348zM332 78c161 0 248 130 273 274c24 137 -14 260 -170 260c-160 0 -247 -130 -273 -274c-24 -137 15 -260 170 -260z"/>
   <glyph glyph-name="OE" horiz-adv-x="1101" unicode="Œ" d="M320 -10c-221 0 -294 168 -260 362c33 187 160 348 377 348c112 0 175 -46 205 -114l20 104h463l-16 -87h-365l-38 -214h322l-15 -88h-322l-37 -211h365l-16 -90h-463l19 99c-54 -69 -131 -109 -239 -109zM328 80c160 0 249 128 274 272c24 137 -16 258 -172 258 c-160 0 -249 -128 -275 -272c-24 -137 17 -258 173 -258z"/>
   <glyph glyph-name="P" horiz-adv-x="544" unicode="P" d="M38 0l122 690h201c136 0 219 -75 197 -203c-22 -121 -126 -187 -262 -187h-108l-53 -300h-97zM204 390h104c89 0 143 39 156 110c11 65 -27 101 -115 101h-109z"/>
   <glyph glyph-name="Thorn" horiz-adv-x="545" unicode="Þ" d="M40 0l122 690h93l-18 -97h106c136 0 218 -75 196 -203c-22 -120 -124 -186 -260 -186h-110l-36 -204h-93zM184 290h106c89 0 146 41 158 116c13 67 -26 105 -115 105h-110z"/>
   <glyph glyph-name="Q" horiz-adv-x="745" unicode="Q" d="M599 -53l-80 96c-55 -35 -121 -53 -194 -53c-221 0 -294 168 -260 362c33 187 160 348 376 348c221 0 295 -168 261 -362c-16 -89 -54 -175 -114 -239l80 -93zM333 80c50 0 93 14 127 34l-78 92l69 58l79 -90c39 49 65 109 77 178c24 137 -17 258 -172 258 c-161 0 -250 -128 -275 -272c-24 -137 17 -258 173 -258z"/>
   <glyph glyph-name="R" horiz-adv-x="582" unicode="R" d="M38 -1l121 690h207c125 0 215 -76 192 -203c-14 -86 -82 -150 -170 -173l131 -314h-110l-121 303h-99l-53 -303h-98zM205 387h120c71 3 128 45 140 112c11 65 -32 103 -109 103h-113z"/>
   <glyph glyph-name="Racute" horiz-adv-x="582" unicode="Ŕ" d="M323 751l132 141h104l-163 -141h-73zM38 -1l121 690h207c125 0 215 -76 192 -203c-14 -86 -82 -150 -170 -173l131 -314h-110l-121 303h-99l-53 -303h-98zM205 387h120c71 3 128 45 140 112c11 65 -32 103 -109 103h-113z"/>
   <glyph glyph-name="Rcaron" horiz-adv-x="582" unicode="Ř" d="M371 730l-130 162h80l61 -84l93 84h84zM38 -1l121 690h207c125 0 215 -76 192 -203c-14 -86 -82 -150 -170 -173l131 -314h-110l-121 303h-99l-53 -303h-98zM205 387h120c71 3 128 45 140 112c11 65 -32 103 -109 103h-113z"/>
   <glyph glyph-name="Rcommaaccent" horiz-adv-x="582" unicode="Ŗ" d="M38 -1l121 690h207c125 0 215 -76 192 -203c-14 -86 -82 -150 -170 -173l131 -314h-110l-121 303h-99l-53 -303h-98zM205 387h120c71 3 128 45 140 112c11 65 -32 103 -109 103h-113zM122 -219l90 165h110l-142 -165h-58z"/>
   <glyph glyph-name="S" horiz-adv-x="546" unicode="S" d="M237 -8c-120 0 -223 66 -221 195l98 20c-6 -86 52 -125 129 -125c80 0 139 39 153 117c26 149 -312 112 -274 328c19 107 119 173 224 173c87 0 153 -37 184 -116l-84 -44c-18 51 -58 75 -106 75c-56 0 -112 -40 -122 -97c-24 -140 314 -102 274 -329 c-21 -123 -132 -197 -255 -197z"/>
   <glyph glyph-name="Sacute" horiz-adv-x="546" unicode="Ś" d="M305 751l132 141h104l-163 -141h-73zM237 -8c-120 0 -223 66 -221 195l98 20c-6 -86 52 -125 129 -125c80 0 139 39 153 117c26 149 -312 112 -274 328c19 107 119 173 224 173c87 0 153 -37 184 -116l-84 -44c-18 51 -58 75 -106 75c-56 0 -112 -40 -122 -97 c-24 -140 314 -102 274 -329c-21 -123 -132 -197 -255 -197z"/>
   <glyph glyph-name="Scaron" horiz-adv-x="546" unicode="Š" d="M353 730l-130 162h80l61 -84l93 84h84zM237 -8c-120 0 -223 66 -221 195l98 20c-6 -86 52 -125 129 -125c80 0 139 39 153 117c26 149 -312 112 -274 328c19 107 119 173 224 173c87 0 153 -37 184 -116l-84 -44c-18 51 -58 75 -106 75c-56 0 -112 -40 -122 -97 c-24 -140 314 -102 274 -329c-21 -123 -132 -197 -255 -197z"/>
   <glyph glyph-name="Scedilla" horiz-adv-x="546" unicode="Ş" d="M218 518c-24 -140 314 -102 274 -329c-20 -117 -122 -190 -239 -197l-50 -55c57 -16 84 -46 76 -89c-9 -53 -61 -92 -110 -92c-47 0 -76 32 -83 67l54 19c1 -16 12 -28 30 -28c22 0 48 19 53 45c3 16 -11 25 -33 33l-63 18l63 86c-99 15 -176 80 -174 191l98 20 c-6 -86 52 -125 129 -125c80 0 139 39 153 117c26 149 -312 112 -274 328c19 107 119 173 224 173c87 0 153 -37 184 -116l-84 -44c-18 51 -58 75 -106 75c-56 0 -112 -40 -122 -97z"/>
   <glyph glyph-name="Scommaaccent" horiz-adv-x="546" unicode="Ș" d="M237 -8c-120 0 -223 66 -221 195l98 20c-6 -86 52 -125 129 -125c80 0 139 39 153 117c26 149 -312 112 -274 328c19 107 119 173 224 173c87 0 153 -37 184 -116l-84 -44c-18 51 -58 75 -106 75c-56 0 -112 -40 -122 -97c-24 -140 314 -102 274 -329 c-21 -123 -132 -197 -255 -197zM68 -219l90 165h110l-142 -165h-58z"/>
   <glyph glyph-name="T" horiz-adv-x="566" unicode="T" d="M184 0l107 606h-226l15 84h550l-16 -84h-226l-106 -606h-98z"/>
   <glyph glyph-name="Tbar" horiz-adv-x="566" unicode="Ŧ" d="M614 606h-226l-42 -238h107l-8 -46h-107l-56 -322h-98l57 322h-106l8 46h106l42 238h-226l15 84h550z"/>
   <glyph glyph-name="Tcaron" horiz-adv-x="566" unicode="Ť" d="M362 730l-130 162h80l61 -84l93 84h84zM184 0l107 606h-226l15 84h550l-16 -84h-226l-106 -606h-98z"/>
   <glyph glyph-name="uni0162" horiz-adv-x="566" unicode="Ţ" d="M80 690h550l-16 -84h-226l-106 -606h-12l-57 -63c57 -16 84 -46 76 -89c-9 -53 -61 -92 -110 -92c-47 0 -76 32 -83 67l54 19c1 -16 12 -28 30 -28c22 0 48 19 53 45c3 16 -11 25 -33 33l-63 18l66 90h-19l107 606h-226z"/>
   <glyph glyph-name="uni021A" horiz-adv-x="566" unicode="Ț" d="M184 0l107 606h-226l15 84h550l-16 -84h-226l-106 -606h-98zM78 -219l90 165h110l-142 -165h-58z"/>
   <glyph glyph-name="U" horiz-adv-x="645" unicode="U" d="M276 -10c-180 0 -234 121 -204 292l73 408h97l-73 -410c-21 -121 -3 -197 114 -197c122 0 173 83 194 203l72 404h97l-73 -410c-31 -175 -123 -290 -297 -290z"/>
   <glyph glyph-name="Uacute" horiz-adv-x="645" unicode="Ú" d="M355 751l132 141h104l-163 -141h-73zM276 -10c-180 0 -234 121 -204 292l73 408h97l-73 -410c-21 -121 -3 -197 114 -197c122 0 173 83 194 203l72 404h97l-73 -410c-31 -175 -123 -290 -297 -290z"/>
   <glyph glyph-name="uni01D3" horiz-adv-x="645" unicode="Ǔ" d="M402 730l-130 162h80l61 -84l93 84h84zM276 -10c-180 0 -234 121 -204 292l73 408h97l-73 -410c-21 -121 -3 -197 114 -197c122 0 173 83 194 203l72 404h97l-73 -410c-31 -175 -123 -290 -297 -290z"/>
   <glyph glyph-name="Ucircumflex" horiz-adv-x="645" unicode="Û" d="M243 738l188 173l131 -173h-80l-62 88l-93 -88h-84zM276 -10c-180 0 -234 121 -204 292l73 408h97l-73 -410c-21 -121 -3 -197 114 -197c122 0 173 83 194 203l72 404h97l-73 -410c-31 -175 -123 -290 -297 -290z"/>
   <glyph glyph-name="Udieresis" horiz-adv-x="645" unicode="Ü" d="M282 774l15 88h87l-15 -88h-87zM448 774l15 88h87l-15 -88h-87zM276 -10c-180 0 -234 121 -204 292l73 408h97l-73 -410c-21 -121 -3 -197 114 -197c122 0 173 83 194 203l72 404h97l-73 -410c-31 -175 -123 -290 -297 -290z"/>
   <glyph glyph-name="uni01D7" horiz-adv-x="645" unicode="Ǘ" d="M384 918l132 141h104l-163 -141h-73zM282 774l15 88h87l-15 -88h-87zM448 774l15 88h87l-15 -88h-87zM276 -10c-180 0 -234 121 -204 292l73 408h97l-73 -410c-21 -121 -3 -197 114 -197c122 0 173 83 194 203l72 404h97l-73 -410c-31 -175 -123 -290 -297 -290z"/>
   <glyph glyph-name="uni01D9" horiz-adv-x="645" unicode="Ǚ" d="M431 897l-130 162h80l61 -84l93 84h84zM282 774l15 88h87l-15 -88h-87zM448 774l15 88h87l-15 -88h-87zM276 -10c-180 0 -234 121 -204 292l73 408h97l-73 -410c-21 -121 -3 -197 114 -197c122 0 173 83 194 203l72 404h97l-73 -410c-31 -175 -123 -290 -297 -290z"/>
   <glyph glyph-name="uni01DB" horiz-adv-x="645" unicode="Ǜ" d="M401 915l-106 144h100l81 -144h-75zM282 774l15 88h87l-15 -88h-87zM448 774l15 88h87l-15 -88h-87zM276 -10c-180 0 -234 121 -204 292l73 408h97l-73 -410c-21 -121 -3 -197 114 -197c122 0 173 83 194 203l72 404h97l-73 -410c-31 -175 -123 -290 -297 -290z"/>
   <glyph glyph-name="uni01D5" horiz-adv-x="645" unicode="Ǖ" d="M305 942l12 64h266l-11 -64h-267zM282 774l15 88h87l-15 -88h-87zM448 774l15 88h87l-15 -88h-87zM276 -10c-180 0 -234 121 -204 292l73 408h97l-73 -410c-21 -121 -3 -197 114 -197c122 0 173 83 194 203l72 404h97l-73 -410c-31 -175 -123 -290 -297 -290z"/>
   <glyph glyph-name="Ugrave" horiz-adv-x="645" unicode="Ù" d="M372 748l-106 144h100l81 -144h-75zM276 -10c-180 0 -234 121 -204 292l73 408h97l-73 -410c-21 -121 -3 -197 114 -197c122 0 173 83 194 203l72 404h97l-73 -410c-31 -175 -123 -290 -297 -290z"/>
   <glyph glyph-name="Uhungarumlaut" horiz-adv-x="645" unicode="Ű" d="M271 744l133 148h98l-159 -148h-72zM434 744l133 148h105l-165 -148h-73zM276 -10c-180 0 -234 121 -204 292l73 408h97l-73 -410c-21 -121 -3 -197 114 -197c122 0 173 83 194 203l72 404h97l-73 -410c-31 -175 -123 -290 -297 -290z"/>
   <glyph glyph-name="Umacron" horiz-adv-x="645" unicode="Ū" d="M276 775l12 64h266l-11 -64h-267zM276 -10c-180 0 -234 121 -204 292l73 408h97l-73 -410c-21 -121 -3 -197 114 -197c122 0 173 83 194 203l72 404h97l-73 -410c-31 -175 -123 -290 -297 -290z"/>
   <glyph glyph-name="Uogonek" horiz-adv-x="645" unicode="Ų" d="M549 690h97l-73 -410c-24 -139 -87 -240 -199 -276c-33 -14 -104 -52 -114 -110c-5 -31 9 -43 29 -43c28 0 48 13 65 33l46 -39c-29 -33 -62 -54 -109 -54c-62 0 -99 43 -88 107c7 44 43 74 75 92h-2c-180 0 -234 121 -204 292l73 408h97l-73 -410 c-21 -121 -3 -197 114 -197c122 0 173 83 194 203z"/>
   <glyph glyph-name="Uring" horiz-adv-x="645" unicode="Ů" d="M404 727c-60 0 -98 50 -87 110c9 53 60 95 114 95c58 0 99 -47 89 -108c-10 -54 -61 -97 -116 -97zM405 781c30 0 58 25 63 56c4 24 -10 41 -37 41c-32 0 -57 -22 -62 -54c-5 -26 11 -43 36 -43zM276 -10c-180 0 -234 121 -204 292l73 408h97l-73 -410 c-21 -121 -3 -197 114 -197c122 0 173 83 194 203l72 404h97l-73 -410c-31 -175 -123 -290 -297 -290z"/>
   <glyph glyph-name="Utilde" horiz-adv-x="645" unicode="Ũ" d="M487 757c-87 0 -95 74 -146 74c-35 0 -54 -32 -59 -70l-62 7c13 76 55 123 120 123c96 0 99 -76 148 -76c36 0 55 31 63 76l66 -6c-15 -86 -61 -128 -130 -128zM276 -10c-180 0 -234 121 -204 292l73 408h97l-73 -410c-21 -121 -3 -197 114 -197c122 0 173 83 194 203 l72 404h97l-73 -410c-31 -175 -123 -290 -297 -290z"/>
   <glyph glyph-name="V" horiz-adv-x="634" unicode="V" d="M229 0l-144 690h103l104 -545l297 545h106l-387 -690h-79z"/>
   <glyph glyph-name="W" horiz-adv-x="942" unicode="W" d="M162 0l-77 690h99l57 -557l252 497h76l76 -497l255 557h103l-321 -690h-100l-76 474l-244 -474h-100z"/>
   <glyph glyph-name="Wacute" horiz-adv-x="942" unicode="Ẃ" d="M503 751l132 141h104l-163 -141h-73zM162 0l-77 690h99l57 -557l252 497h76l76 -497l255 557h103l-321 -690h-100l-76 474l-244 -474h-100z"/>
   <glyph glyph-name="Wcircumflex" horiz-adv-x="942" unicode="Ŵ" d="M392 738l188 173l131 -173h-80l-62 88l-93 -88h-84zM162 0l-77 690h99l57 -557l252 497h76l76 -497l255 557h103l-321 -690h-100l-76 474l-244 -474h-100z"/>
   <glyph glyph-name="Wdieresis" horiz-adv-x="942" unicode="Ẅ" d="M431 774l15 88h87l-15 -88h-87zM597 774l15 88h87l-15 -88h-87zM162 0l-77 690h99l57 -557l252 497h76l76 -497l255 557h103l-321 -690h-100l-76 474l-244 -474h-100z"/>
   <glyph glyph-name="Wgrave" horiz-adv-x="942" unicode="Ẁ" d="M520 748l-106 144h100l81 -144h-75zM162 0l-77 690h99l57 -557l252 497h76l76 -497l255 557h103l-321 -690h-100l-76 474l-244 -474h-100z"/>
   <glyph glyph-name="X" horiz-adv-x="619" unicode="X" d="M-33 0l291 345l-166 345h114l125 -278l224 278h118l-290 -345l167 -345h-114l-127 273l-224 -273h-118z"/>
   <glyph glyph-name="Y" horiz-adv-x="653" unicode="Y" d="M228 0l49 270l-196 420h112l145 -329l264 329h116l-344 -420l-49 -270h-97z"/>
   <glyph glyph-name="Yacute" horiz-adv-x="653" unicode="Ý" d="M359 751l132 141h104l-163 -141h-73zM228 0l49 270l-196 420h112l145 -329l264 329h116l-344 -420l-49 -270h-97z"/>
   <glyph glyph-name="Ycircumflex" horiz-adv-x="653" unicode="Ŷ" d="M247 738l188 173l131 -173h-80l-62 88l-93 -88h-84zM228 0l49 270l-196 420h112l145 -329l264 329h116l-344 -420l-49 -270h-97z"/>
   <glyph glyph-name="Ydieresis" horiz-adv-x="653" unicode="Ÿ" d="M286 774l15 88h87l-15 -88h-87zM452 774l15 88h87l-15 -88h-87zM228 0l49 270l-196 420h112l145 -329l264 329h116l-344 -420l-49 -270h-97z"/>
   <glyph glyph-name="Ygrave" horiz-adv-x="653" unicode="Ỳ" d="M376 748l-106 144h100l81 -144h-75zM228 0l49 270l-196 420h112l145 -329l264 329h116l-344 -420l-49 -270h-97z"/>
   <glyph glyph-name="uni1EF8" horiz-adv-x="653" unicode="Ỹ" d="M491 757c-87 0 -95 74 -146 74c-35 0 -54 -32 -59 -70l-62 7c13 76 55 123 120 123c96 0 99 -76 148 -76c36 0 55 31 63 76l66 -6c-15 -86 -61 -128 -130 -128zM228 0l49 270l-196 420h112l145 -329l264 329h116l-344 -420l-49 -270h-97z"/>
   <glyph glyph-name="Z" horiz-adv-x="624" unicode="Z" d="M-11 0l11 72l509 531h-391l15 87h521l-13 -75l-505 -526h412l-16 -89h-543z"/>
   <glyph glyph-name="Zacute" horiz-adv-x="624" unicode="Ź" d="M344 751l132 141h104l-163 -141h-73zM-11 0l11 72l509 531h-391l15 87h521l-13 -75l-505 -526h412l-16 -89h-543z"/>
   <glyph glyph-name="Zcaron" horiz-adv-x="624" unicode="Ž" d="M392 730l-130 162h80l61 -84l93 84h84zM-11 0l11 72l509 531h-391l15 87h521l-13 -75l-505 -526h412l-16 -89h-543z"/>
   <glyph glyph-name="Zdotaccent" horiz-adv-x="624" unicode="Ż" d="M401 767c-40 0 -65 34 -58 75c6 34 37 60 73 60c40 0 67 -33 59 -74c-5 -34 -39 -61 -74 -61zM-11 0l11 72l509 531h-391l15 87h521l-13 -75l-505 -526h412l-16 -89h-543z"/>
   <glyph glyph-name="a" horiz-adv-x="522" unicode="a" d="M163 -10c-91 0 -158 61 -142 156c19 103 103 138 210 138l143 4c14 80 -6 127 -88 127c-57 0 -109 -37 -137 -72l-63 57c59 65 123 96 209 96c128 0 188 -82 167 -201l-52 -295h-74l6 77c-54 -64 -109 -87 -179 -87zM189 71c83 0 159 73 173 145l-133 -3 c-58 0 -106 -32 -115 -80c-7 -44 28 -62 75 -62z"/>
   <glyph glyph-name="aacute" horiz-adv-x="522" unicode="á" d="M258 549l132 141h104l-163 -141h-73zM163 -10c-91 0 -158 61 -142 156c19 103 103 138 210 138l143 4c14 80 -6 127 -88 127c-57 0 -109 -37 -137 -72l-63 57c59 65 123 96 209 96c128 0 188 -82 167 -201l-52 -295h-74l6 77c-54 -64 -109 -87 -179 -87zM189 71 c83 0 159 73 173 145l-133 -3c-58 0 -106 -32 -115 -80c-7 -44 28 -62 75 -62z"/>
   <glyph glyph-name="abreve" horiz-adv-x="522" unicode="ă" d="M313 558c-94 0 -146 50 -131 135l70 -6c-8 -45 22 -70 64 -70c47 0 89 31 97 76l70 -6c-16 -87 -81 -129 -170 -129zM163 -10c-91 0 -158 61 -142 156c19 103 103 138 210 138l143 4c14 80 -6 127 -88 127c-57 0 -109 -37 -137 -72l-63 57c59 65 123 96 209 96 c128 0 188 -82 167 -201l-52 -295h-74l6 77c-54 -64 -109 -87 -179 -87zM189 71c83 0 159 73 173 145l-133 -3c-58 0 -106 -32 -115 -80c-7 -44 28 -62 75 -62z"/>
   <glyph glyph-name="uni1EAF" horiz-adv-x="522" unicode="ắ" d="M294 751l132 141h104l-163 -141h-73zM313 558c-94 0 -146 50 -131 135l70 -6c-8 -45 22 -70 64 -70c47 0 89 31 97 76l70 -6c-16 -87 -81 -129 -170 -129zM163 -10c-91 0 -158 61 -142 156c19 103 103 138 210 138l143 4c14 80 -6 127 -88 127c-57 0 -109 -37 -137 -72 l-63 57c59 65 123 96 209 96c128 0 188 -82 167 -201l-52 -295h-74l6 77c-54 -64 -109 -87 -179 -87zM189 71c83 0 159 73 173 145l-133 -3c-58 0 -106 -32 -115 -80c-7 -44 28 -62 75 -62z"/>
   <glyph glyph-name="uni1EB1" horiz-adv-x="522" unicode="ằ" d="M311 748l-106 144h100l81 -144h-75zM313 558c-94 0 -146 50 -131 135l70 -6c-8 -45 22 -70 64 -70c47 0 89 31 97 76l70 -6c-16 -87 -81 -129 -170 -129zM163 -10c-91 0 -158 61 -142 156c19 103 103 138 210 138l143 4c14 80 -6 127 -88 127c-57 0 -109 -37 -137 -72 l-63 57c59 65 123 96 209 96c128 0 188 -82 167 -201l-52 -295h-74l6 77c-54 -64 -109 -87 -179 -87zM189 71c83 0 159 73 173 145l-133 -3c-58 0 -106 -32 -115 -80c-7 -44 28 -62 75 -62z"/>
   <glyph glyph-name="uni1EB5" horiz-adv-x="522" unicode="ẵ" d="M426 758c-87 0 -95 74 -146 74c-35 0 -54 -32 -59 -70l-62 7c13 76 55 123 120 123c96 0 99 -76 148 -76c36 0 55 31 63 76l66 -6c-15 -86 -61 -128 -130 -128zM313 558c-94 0 -146 50 -131 135l70 -6c-8 -45 22 -70 64 -70c47 0 89 31 97 76l70 -6 c-16 -87 -81 -129 -170 -129zM163 -10c-91 0 -158 61 -142 156c19 103 103 138 210 138l143 4c14 80 -6 127 -88 127c-57 0 -109 -37 -137 -72l-63 57c59 65 123 96 209 96c128 0 188 -82 167 -201l-52 -295h-74l6 77c-54 -64 -109 -87 -179 -87zM189 71 c83 0 159 73 173 145l-133 -3c-58 0 -106 -32 -115 -80c-7 -44 28 -62 75 -62z"/>
   <glyph glyph-name="uni01CE" horiz-adv-x="522" unicode="ǎ" d="M305 528l-130 162h80l61 -84l93 84h84zM163 -10c-91 0 -158 61 -142 156c19 103 103 138 210 138l143 4c14 80 -6 127 -88 127c-57 0 -109 -37 -137 -72l-63 57c59 65 123 96 209 96c128 0 188 -82 167 -201l-52 -295h-74l6 77c-54 -64 -109 -87 -179 -87zM189 71 c83 0 159 73 173 145l-133 -3c-58 0 -106 -32 -115 -80c-7 -44 28 -62 75 -62z"/>
   <glyph glyph-name="acircumflex" horiz-adv-x="522" unicode="â" d="M146 536l188 173l131 -173h-80l-62 88l-93 -88h-84zM163 -10c-91 0 -158 61 -142 156c19 103 103 138 210 138l143 4c14 80 -6 127 -88 127c-57 0 -109 -37 -137 -72l-63 57c59 65 123 96 209 96c128 0 188 -82 167 -201l-52 -295h-74l6 77c-54 -64 -109 -87 -179 -87z M189 71c83 0 159 73 173 145l-133 -3c-58 0 -106 -32 -115 -80c-7 -44 28 -62 75 -62z"/>
   <glyph glyph-name="uni1EA5" horiz-adv-x="522" unicode="ấ" d="M293 751l132 141h104l-163 -141h-73zM146 536l188 173l131 -173h-80l-62 88l-93 -88h-84zM163 -10c-91 0 -158 61 -142 156c19 103 103 138 210 138l143 4c14 80 -6 127 -88 127c-57 0 -109 -37 -137 -72l-63 57c59 65 123 96 209 96c128 0 188 -82 167 -201l-52 -295 h-74l6 77c-54 -64 -109 -87 -179 -87zM189 71c83 0 159 73 173 145l-133 -3c-58 0 -106 -32 -115 -80c-7 -44 28 -62 75 -62z"/>
   <glyph glyph-name="uni1EA7" horiz-adv-x="522" unicode="ầ" d="M310 748l-106 144h100l81 -144h-75zM146 536l188 173l131 -173h-80l-62 88l-93 -88h-84zM163 -10c-91 0 -158 61 -142 156c19 103 103 138 210 138l143 4c14 80 -6 127 -88 127c-57 0 -109 -37 -137 -72l-63 57c59 65 123 96 209 96c128 0 188 -82 167 -201l-52 -295h-74 l6 77c-54 -64 -109 -87 -179 -87zM189 71c83 0 159 73 173 145l-133 -3c-58 0 -106 -32 -115 -80c-7 -44 28 -62 75 -62z"/>
   <glyph glyph-name="uni1EAB" horiz-adv-x="522" unicode="ẫ" d="M425 757c-87 0 -95 74 -146 74c-35 0 -54 -32 -59 -70l-62 7c13 76 55 123 120 123c96 0 99 -76 148 -76c36 0 55 31 63 76l66 -6c-15 -86 -61 -128 -130 -128zM146 536l188 173l131 -173h-80l-62 88l-93 -88h-84zM163 -10c-91 0 -158 61 -142 156 c19 103 103 138 210 138l143 4c14 80 -6 127 -88 127c-57 0 -109 -37 -137 -72l-63 57c59 65 123 96 209 96c128 0 188 -82 167 -201l-52 -295h-74l6 77c-54 -64 -109 -87 -179 -87zM189 71c83 0 159 73 173 145l-133 -3c-58 0 -106 -32 -115 -80c-7 -44 28 -62 75 -62z"/>
   <glyph glyph-name="adieresis" horiz-adv-x="522" unicode="ä" d="M185 572l15 88h87l-15 -88h-87zM351 572l15 88h87l-15 -88h-87zM163 -10c-91 0 -158 61 -142 156c19 103 103 138 210 138l143 4c14 80 -6 127 -88 127c-57 0 -109 -37 -137 -72l-63 57c59 65 123 96 209 96c128 0 188 -82 167 -201l-52 -295h-74l6 77 c-54 -64 -109 -87 -179 -87zM189 71c83 0 159 73 173 145l-133 -3c-58 0 -106 -32 -115 -80c-7 -44 28 -62 75 -62z"/>
   <glyph glyph-name="agrave" horiz-adv-x="522" unicode="à" d="M275 546l-106 144h100l81 -144h-75zM163 -10c-91 0 -158 61 -142 156c19 103 103 138 210 138l143 4c14 80 -6 127 -88 127c-57 0 -109 -37 -137 -72l-63 57c59 65 123 96 209 96c128 0 188 -82 167 -201l-52 -295h-74l6 77c-54 -64 -109 -87 -179 -87zM189 71 c83 0 159 73 173 145l-133 -3c-58 0 -106 -32 -115 -80c-7 -44 28 -62 75 -62z"/>
   <glyph glyph-name="amacron" horiz-adv-x="522" unicode="ā" d="M179 573l12 64h266l-11 -64h-267zM163 -10c-91 0 -158 61 -142 156c19 103 103 138 210 138l143 4c14 80 -6 127 -88 127c-57 0 -109 -37 -137 -72l-63 57c59 65 123 96 209 96c128 0 188 -82 167 -201l-52 -295h-74l6 77c-54 -64 -109 -87 -179 -87zM189 71 c83 0 159 73 173 145l-133 -3c-58 0 -106 -32 -115 -80c-7 -44 28 -62 75 -62z"/>
   <glyph glyph-name="aogonek" horiz-adv-x="522" unicode="ą" d="M410 0c-4 -1 -118 -42 -131 -117c-5 -31 9 -43 29 -43c28 0 48 13 65 33l46 -39c-29 -33 -62 -54 -109 -54c-62 0 -99 43 -88 107c12 69 94 104 124 113h-10l6 77c-54 -64 -109 -87 -179 -87c-91 0 -158 61 -142 156c19 103 103 138 210 138l143 4c14 80 -6 127 -88 127 c-57 0 -109 -37 -137 -72l-63 57c59 65 123 96 209 96c128 0 188 -82 167 -201zM189 71c83 0 159 73 173 145l-133 -3c-58 0 -106 -32 -115 -80c-7 -44 28 -62 75 -62z"/>
   <glyph glyph-name="aring" horiz-adv-x="522" unicode="å" d="M307 525c-60 0 -98 50 -87 110c9 53 60 95 114 95c58 0 99 -47 89 -108c-10 -54 -61 -97 -116 -97zM308 579c30 0 58 25 63 56c4 24 -10 41 -37 41c-32 0 -57 -22 -62 -54c-5 -26 11 -43 36 -43zM163 -10c-91 0 -158 61 -142 156c19 103 103 138 210 138l143 4 c14 80 -6 127 -88 127c-57 0 -109 -37 -137 -72l-63 57c59 65 123 96 209 96c128 0 188 -82 167 -201l-52 -295h-74l6 77c-54 -64 -109 -87 -179 -87zM189 71c83 0 159 73 173 145l-133 -3c-58 0 -106 -32 -115 -80c-7 -44 28 -62 75 -62z"/>
   <glyph glyph-name="atilde" horiz-adv-x="522" unicode="ã" d="M390 556c-87 0 -95 74 -146 74c-35 0 -54 -32 -59 -70l-62 7c13 76 55 123 120 123c96 0 99 -76 148 -76c36 0 55 31 63 76l66 -6c-15 -86 -61 -128 -130 -128zM163 -10c-91 0 -158 61 -142 156c19 103 103 138 210 138l143 4c14 80 -6 127 -88 127 c-57 0 -109 -37 -137 -72l-63 57c59 65 123 96 209 96c128 0 188 -82 167 -201l-52 -295h-74l6 77c-54 -64 -109 -87 -179 -87zM189 71c83 0 159 73 173 145l-133 -3c-58 0 -106 -32 -115 -80c-7 -44 28 -62 75 -62z"/>
   <glyph glyph-name="ae" horiz-adv-x="830" unicode="æ" d="M155 -10c-89 0 -156 61 -139 155c18 103 101 139 207 139l147 4c15 83 -7 131 -91 131c-57 0 -109 -35 -138 -70l-61 52c59 64 122 95 208 95c80 0 130 -35 148 -87c43 54 99 85 173 85c166 0 195 -127 171 -262c-1 -9 -6 -22 -6 -22h-338c-10 -75 21 -132 104 -132 c56 0 99 13 143 52l56 -58c-66 -59 -128 -78 -204 -78c-98 0 -147 48 -163 112c-50 -71 -120 -116 -217 -116zM449 281l251 7c10 78 -20 126 -100 126c-82 0 -133 -61 -151 -133zM180 68c84 0 162 77 177 148l-136 -3c-58 0 -107 -31 -116 -81c-7 -41 32 -64 75 -64z"/>
   <glyph glyph-name="b" horiz-adv-x="579" unicode="b" d="M284 -10c-66 0 -111 27 -137 72l-12 -62h-95l122 690h95l-48 -259c42 46 96 68 156 68c132 0 184 -120 160 -262c-24 -135 -114 -247 -241 -247zM267 74c92 0 149 81 166 176c16 89 -9 165 -98 165c-92 0 -147 -82 -164 -178c-16 -89 9 -163 96 -163z"/>
   <glyph glyph-name="c" horiz-adv-x="496" unicode="c" d="M224 -10c-152 0 -205 125 -181 260c23 127 113 246 260 246c94 0 158 -54 179 -137l-91 -29c-6 53 -41 82 -93 82c-96 0 -148 -91 -163 -176c-14 -79 3 -162 95 -162c56 0 105 37 129 89l78 -40c-46 -86 -124 -133 -213 -133z"/>
   <glyph glyph-name="cacute" horiz-adv-x="496" unicode="ć" d="M245 549l132 141h104l-163 -141h-73zM224 -10c-152 0 -205 125 -181 260c23 127 113 246 260 246c94 0 158 -54 179 -137l-91 -29c-6 53 -41 82 -93 82c-96 0 -148 -91 -163 -176c-14 -79 3 -162 95 -162c56 0 105 37 129 89l78 -40c-46 -86 -124 -133 -213 -133z"/>
   <glyph glyph-name="ccaron" horiz-adv-x="496" unicode="č" d="M292 528l-130 162h80l61 -84l93 84h84zM224 -10c-152 0 -205 125 -181 260c23 127 113 246 260 246c94 0 158 -54 179 -137l-91 -29c-6 53 -41 82 -93 82c-96 0 -148 -91 -163 -176c-14 -79 3 -162 95 -162c56 0 105 37 129 89l78 -40c-46 -86 -124 -133 -213 -133z"/>
   <glyph glyph-name="ccedilla" horiz-adv-x="496" unicode="ç" d="M230 74c56 0 105 37 129 89l78 -40c-40 -76 -105 -121 -181 -131l-50 -55c57 -16 84 -46 76 -89c-9 -53 -61 -92 -110 -92c-47 0 -76 32 -83 67l54 19c1 -16 12 -28 30 -28c22 0 48 19 53 45c3 16 -11 25 -33 33l-63 18l60 82c-126 17 -169 133 -147 258 c23 127 113 246 260 246c94 0 158 -54 179 -137l-91 -29c-6 53 -41 82 -93 82c-96 0 -148 -91 -163 -176c-14 -79 3 -162 95 -162z"/>
   <glyph glyph-name="cdotaccent" horiz-adv-x="496" unicode="ċ" d="M301 565c-40 0 -65 34 -58 75c6 34 37 60 73 60c40 0 67 -33 59 -74c-5 -34 -39 -61 -74 -61zM224 -10c-152 0 -205 125 -181 260c23 127 113 246 260 246c94 0 158 -54 179 -137l-91 -29c-6 53 -41 82 -93 82c-96 0 -148 -91 -163 -176c-14 -79 3 -162 95 -162 c56 0 105 37 129 89l78 -40c-46 -86 -124 -133 -213 -133z"/>
   <glyph glyph-name="d" horiz-adv-x="580" unicode="d" d="M201 -10c-132 0 -184 119 -159 261c24 135 113 247 240 247c66 0 112 -27 137 -72l49 264h93l-122 -690h-93l11 57c-42 -46 -95 -67 -156 -67zM231 75c93 0 147 79 164 175c16 89 -8 163 -95 163c-92 0 -150 -81 -167 -176c-16 -89 10 -162 98 -162z"/>
   <glyph glyph-name="eth" horiz-adv-x="582" unicode="ð" d="M243 -8c-155 0 -221 127 -196 267c24 133 128 253 279 253c45 0 85 -20 105 -39c-3 59 -34 99 -74 131l-51 -60l-57 44l47 54c-29 16 -62 28 -73 33l51 63c16 -7 47 -22 72 -36l45 54l56 -44l-42 -48c89 -70 157 -186 116 -419c-22 -133 -127 -253 -278 -253zM248 73 c104 0 168 91 185 186c17 91 -17 172 -113 172c-103 0 -168 -91 -185 -186c-15 -87 15 -172 113 -172z"/>
   <glyph glyph-name="dcaron" horiz-adv-x="618" unicode="ď" d="M201 -10c-132 0 -184 119 -159 261c24 135 113 247 240 247c66 0 112 -27 137 -72l49 264h93l-122 -690h-93l11 57c-42 -46 -95 -67 -156 -67zM549 490l98 200h110l-149 -200h-59zM231 75c93 0 147 79 164 175c16 89 -8 163 -95 163c-92 0 -150 -81 -167 -176 c-16 -89 10 -162 98 -162z"/>
   <glyph glyph-name="dcroat" horiz-adv-x="580" unicode="đ" d="M628 618l-8 -46h-80l-101 -572h-93l11 57c-42 -46 -95 -67 -156 -67c-132 0 -184 119 -159 261c24 135 113 247 240 247c66 0 112 -27 137 -72l27 146h-136l8 46h136l14 72h93l-12 -72h79zM395 250c16 89 -8 163 -95 163c-92 0 -150 -81 -167 -176 c-16 -89 10 -162 98 -162c93 0 147 79 164 175z"/>
   <glyph glyph-name="e" horiz-adv-x="518" unicode="e" d="M229 -6c-157 0 -214 118 -190 254c22 127 113 246 260 246c170 0 199 -127 175 -262c-1 -9 -5 -22 -5 -22h-339c-10 -75 22 -132 104 -132c57 0 99 13 143 52l56 -58c-65 -59 -128 -78 -204 -78zM143 281l251 7c10 78 -19 126 -99 126c-83 0 -134 -61 -152 -133z"/>
   <glyph glyph-name="eacute" horiz-adv-x="518" unicode="é" d="M258 549l132 141h104l-163 -141h-73zM229 -6c-157 0 -214 118 -190 254c22 127 113 246 260 246c170 0 199 -127 175 -262c-1 -9 -5 -22 -5 -22h-339c-10 -75 22 -132 104 -132c57 0 99 13 143 52l56 -58c-65 -59 -128 -78 -204 -78zM143 281l251 7 c10 78 -19 126 -99 126c-83 0 -134 -61 -152 -133z"/>
   <glyph glyph-name="ecaron" horiz-adv-x="518" unicode="ě" d="M305 528l-130 162h80l61 -84l93 84h84zM229 -6c-157 0 -214 118 -190 254c22 127 113 246 260 246c170 0 199 -127 175 -262c-1 -9 -5 -22 -5 -22h-339c-10 -75 22 -132 104 -132c57 0 99 13 143 52l56 -58c-65 -59 -128 -78 -204 -78zM143 281l251 7 c10 78 -19 126 -99 126c-83 0 -134 -61 -152 -133z"/>
   <glyph glyph-name="ecircumflex" horiz-adv-x="518" unicode="ê" d="M146 536l188 173l131 -173h-80l-62 88l-93 -88h-84zM229 -6c-157 0 -214 118 -190 254c22 127 113 246 260 246c170 0 199 -127 175 -262c-1 -9 -5 -22 -5 -22h-339c-10 -75 22 -132 104 -132c57 0 99 13 143 52l56 -58c-65 -59 -128 -78 -204 -78zM143 281l251 7 c10 78 -19 126 -99 126c-83 0 -134 -61 -152 -133z"/>
   <glyph glyph-name="uni1EBF" horiz-adv-x="518" unicode="ế" d="M294 751l132 141h104l-163 -141h-73zM146 536l188 173l131 -173h-80l-62 88l-93 -88h-84zM229 -6c-157 0 -214 118 -190 254c22 127 113 246 260 246c170 0 199 -127 175 -262c-1 -9 -5 -22 -5 -22h-339c-10 -75 22 -132 104 -132c57 0 99 13 143 52l56 -58 c-65 -59 -128 -78 -204 -78zM143 281l251 7c10 78 -19 126 -99 126c-83 0 -134 -61 -152 -133z"/>
   <glyph glyph-name="uni1EC1" horiz-adv-x="518" unicode="ề" d="M311 748l-106 144h100l81 -144h-75zM146 536l188 173l131 -173h-80l-62 88l-93 -88h-84zM229 -6c-157 0 -214 118 -190 254c22 127 113 246 260 246c170 0 199 -127 175 -262c-1 -9 -5 -22 -5 -22h-339c-10 -75 22 -132 104 -132c57 0 99 13 143 52l56 -58 c-65 -59 -128 -78 -204 -78zM143 281l251 7c10 78 -19 126 -99 126c-83 0 -134 -61 -152 -133z"/>
   <glyph glyph-name="uni1EC5" horiz-adv-x="518" unicode="ễ" d="M426 757c-87 0 -95 74 -146 74c-35 0 -54 -32 -59 -70l-62 7c13 76 55 123 120 123c96 0 99 -76 148 -76c36 0 55 31 63 76l66 -6c-15 -86 -61 -128 -130 -128zM146 536l188 173l131 -173h-80l-62 88l-93 -88h-84zM229 -6c-157 0 -214 118 -190 254 c22 127 113 246 260 246c170 0 199 -127 175 -262c-1 -9 -5 -22 -5 -22h-339c-10 -75 22 -132 104 -132c57 0 99 13 143 52l56 -58c-65 -59 -128 -78 -204 -78zM143 281l251 7c10 78 -19 126 -99 126c-83 0 -134 -61 -152 -133z"/>
   <glyph glyph-name="edieresis" horiz-adv-x="518" unicode="ë" d="M186 572l15 88h87l-15 -88h-87zM352 572l15 88h87l-15 -88h-87zM229 -6c-157 0 -214 118 -190 254c22 127 113 246 260 246c170 0 199 -127 175 -262c-1 -9 -5 -22 -5 -22h-339c-10 -75 22 -132 104 -132c57 0 99 13 143 52l56 -58c-65 -59 -128 -78 -204 -78zM143 281 l251 7c10 78 -19 126 -99 126c-83 0 -134 -61 -152 -133z"/>
   <glyph glyph-name="edotaccent" horiz-adv-x="518" unicode="ė" d="M315 565c-40 0 -65 34 -58 75c6 34 37 60 73 60c40 0 67 -33 59 -74c-5 -34 -39 -61 -74 -61zM229 -6c-157 0 -214 118 -190 254c22 127 113 246 260 246c170 0 199 -127 175 -262c-1 -9 -5 -22 -5 -22h-339c-10 -75 22 -132 104 -132c57 0 99 13 143 52l56 -58 c-65 -59 -128 -78 -204 -78zM143 281l251 7c10 78 -19 126 -99 126c-83 0 -134 -61 -152 -133z"/>
   <glyph glyph-name="egrave" horiz-adv-x="518" unicode="è" d="M275 546l-106 144h100l81 -144h-75zM229 -6c-157 0 -214 118 -190 254c22 127 113 246 260 246c170 0 199 -127 175 -262c-1 -9 -5 -22 -5 -22h-339c-10 -75 22 -132 104 -132c57 0 99 13 143 52l56 -58c-65 -59 -128 -78 -204 -78zM143 281l251 7c10 78 -19 126 -99 126 c-83 0 -134 -61 -152 -133z"/>
   <glyph glyph-name="emacron" horiz-adv-x="518" unicode="ē" d="M179 573l12 64h266l-11 -64h-267zM229 -6c-157 0 -214 118 -190 254c22 127 113 246 260 246c170 0 199 -127 175 -262c-1 -9 -5 -22 -5 -22h-339c-10 -75 22 -132 104 -132c57 0 99 13 143 52l56 -58c-65 -59 -128 -78 -204 -78zM143 281l251 7c10 78 -19 126 -99 126 c-83 0 -134 -61 -152 -133z"/>
   <glyph glyph-name="eogonek" horiz-adv-x="518" unicode="ę" d="M299 494c170 0 199 -127 175 -262c-1 -9 -5 -22 -5 -22h-339c-10 -75 22 -132 104 -132c57 0 99 13 143 52l56 -58c-39 -35 -76 -56 -117 -67c-35 -17 -93 -53 -102 -105c-5 -31 9 -43 29 -43c28 0 48 13 65 33l46 -39c-29 -33 -62 -54 -109 -54c-62 0 -99 43 -88 107 c7 42 40 71 72 90c-157 0 -214 118 -190 254c22 127 113 246 260 246zM394 288c10 78 -19 126 -99 126c-83 0 -134 -61 -152 -133z"/>
   <glyph glyph-name="uni1EBD" horiz-adv-x="518" unicode="ẽ" d="M390 556c-87 0 -95 74 -146 74c-35 0 -54 -32 -59 -70l-62 7c13 76 55 123 120 123c96 0 99 -76 148 -76c36 0 55 31 63 76l66 -6c-15 -86 -61 -128 -130 -128zM229 -6c-157 0 -214 118 -190 254c22 127 113 246 260 246c170 0 199 -127 175 -262c-1 -9 -5 -22 -5 -22 h-339c-10 -75 22 -132 104 -132c57 0 99 13 143 52l56 -58c-65 -59 -128 -78 -204 -78zM143 281l251 7c10 78 -19 126 -99 126c-83 0 -134 -61 -152 -133z"/>
   <glyph glyph-name="f" horiz-adv-x="347" unicode="f" d="M64 0l71 407h-89l15 80h89l15 83c15 86 86 130 162 130c30 0 58 -9 82 -20l-39 -71s-14 8 -39 8c-36 0 -68 -23 -74 -56l-13 -73h129l-14 -81h-129l-72 -407h-94z"/>
   <glyph glyph-name="g" horiz-adv-x="518" unicode="g" d="M188 -224c-102 0 -226 40 -203 165c4 29 16 48 17 51l82 29c-49 28 -63 80 -57 111c6 37 35 75 74 109c-10 23 -15 51 -8 88c19 102 109 165 210 165c35 0 66 -9 87 -21l96 74l43 -69l-84 -54c16 -29 24 -63 16 -109c-18 -103 -109 -164 -209 -164c-42 0 -77 12 -101 26 c-17 -16 -38 -35 -42 -58c-7 -40 65 -40 138 -41c120 -3 208 -25 187 -146c-21 -116 -122 -156 -246 -156zM257 226c59 0 104 44 114 102c10 53 -16 93 -71 93c-60 0 -106 -47 -117 -105c-8 -52 19 -90 74 -90zM193 -143c70 0 147 18 159 83c8 48 -42 55 -113 55 c-36 0 -64 0 -88 3l-88 -61c-2 -22 15 -80 130 -80z"/>
   <glyph glyph-name="gbreve" horiz-adv-x="518" unicode="ğ" d="M311 558c-94 0 -146 50 -131 135l70 -6c-8 -45 22 -70 64 -70c47 0 89 31 97 76l70 -6c-16 -87 -81 -129 -170 -129zM188 -224c-102 0 -226 40 -203 165c4 29 16 48 17 51l82 29c-49 28 -63 80 -57 111c6 37 35 75 74 109c-10 23 -15 51 -8 88c19 102 109 165 210 165 c35 0 66 -9 87 -21l96 74l43 -69l-84 -54c16 -29 24 -63 16 -109c-18 -103 -109 -164 -209 -164c-42 0 -77 12 -101 26c-17 -16 -38 -35 -42 -58c-7 -40 65 -40 138 -41c120 -3 208 -25 187 -146c-21 -116 -122 -156 -246 -156zM257 226c59 0 104 44 114 102 c10 53 -16 93 -71 93c-60 0 -106 -47 -117 -105c-8 -52 19 -90 74 -90zM193 -143c70 0 147 18 159 83c8 48 -42 55 -113 55c-36 0 -64 0 -88 3l-88 -61c-2 -22 15 -80 130 -80z"/>
   <glyph glyph-name="gcommaaccent" horiz-adv-x="518" unicode="ģ" d="M482 696l-90 -148h-110l142 148h58zM188 -224c-102 0 -226 40 -203 165c4 29 16 48 17 51l82 29c-49 28 -63 80 -57 111c6 37 35 75 74 109c-10 23 -15 51 -8 88c19 102 109 165 210 165c35 0 66 -9 87 -21l96 74l43 -69l-84 -54c16 -29 24 -63 16 -109 c-18 -103 -109 -164 -209 -164c-42 0 -77 12 -101 26c-17 -16 -38 -35 -42 -58c-7 -40 65 -40 138 -41c120 -3 208 -25 187 -146c-21 -116 -122 -156 -246 -156zM257 226c59 0 104 44 114 102c10 53 -16 93 -71 93c-60 0 -106 -47 -117 -105c-8 -52 19 -90 74 -90zM193 -143 c70 0 147 18 159 83c8 48 -42 55 -113 55c-36 0 -64 0 -88 3l-88 -61c-2 -22 15 -80 130 -80z"/>
   <glyph glyph-name="gdotaccent" horiz-adv-x="518" unicode="ġ" d="M312 565c-40 0 -65 34 -58 75c6 34 37 60 73 60c40 0 67 -33 59 -74c-5 -34 -39 -61 -74 -61zM188 -224c-102 0 -226 40 -203 165c4 29 16 48 17 51l82 29c-49 28 -63 80 -57 111c6 37 35 75 74 109c-10 23 -15 51 -8 88c19 102 109 165 210 165c35 0 66 -9 87 -21l96 74 l43 -69l-84 -54c16 -29 24 -63 16 -109c-18 -103 -109 -164 -209 -164c-42 0 -77 12 -101 26c-17 -16 -38 -35 -42 -58c-7 -40 65 -40 138 -41c120 -3 208 -25 187 -146c-21 -116 -122 -156 -246 -156zM257 226c59 0 104 44 114 102c10 53 -16 93 -71 93 c-60 0 -106 -47 -117 -105c-8 -52 19 -90 74 -90zM193 -143c70 0 147 18 159 83c8 48 -42 55 -113 55c-36 0 -64 0 -88 3l-88 -61c-2 -22 15 -80 130 -80z"/>
   <glyph glyph-name="h" horiz-adv-x="569" unicode="h" d="M36 0l122 690h94l-49 -267c43 49 100 74 154 74c130 0 163 -102 145 -207l-52 -290h-93l50 288c12 64 5 119 -66 119c-74 0 -145 -61 -161 -129l-50 -278h-94z"/>
   <glyph glyph-name="hbar" horiz-adv-x="569" unicode="ħ" d="M357 497c130 0 163 -102 145 -207l-52 -290h-93l50 288c12 64 5 119 -66 119c-74 0 -145 -61 -161 -129l-50 -278h-94l99 557h-83l8 46h83l15 87h94l-16 -87h134l-8 -46h-134l-25 -134c43 49 100 74 154 74z"/>
   <glyph glyph-name="i" horiz-adv-x="264" unicode="i" d="M135 589l17 101h103l-18 -101h-102zM36 0l86 488h93l-86 -488h-93z"/>
   <glyph glyph-name="dotlessi" horiz-adv-x="255" unicode="ı" d="M32 0l86 488h92l-86 -488h-92z"/>
   <glyph glyph-name="iacute" horiz-adv-x="255" unicode="í" d="M124 549l132 141h104l-163 -141h-73zM32 0l86 488h92l-86 -488h-92z"/>
   <glyph glyph-name="uni01D0" horiz-adv-x="255" unicode="ǐ" d="M172 528l-130 162h80l61 -84l93 84h84zM32 0l86 488h92l-86 -488h-92z"/>
   <glyph glyph-name="icircumflex" horiz-adv-x="255" unicode="î" d="M13 536l188 173l131 -173h-80l-62 88l-93 -88h-84zM32 0l86 488h92l-86 -488h-92z"/>
   <glyph glyph-name="idieresis" horiz-adv-x="255" unicode="ï" d="M52 572l15 88h87l-15 -88h-87zM218 572l15 88h87l-15 -88h-87zM32 0l86 488h92l-86 -488h-92z"/>
   <glyph glyph-name="i.loclTRK" d="M181 565c-40 0 -65 34 -58 75c6 34 37 60 73 60c40 0 67 -33 59 -74c-5 -34 -39 -61 -74 -61zM32 0l86 488h92l-86 -488h-92z" horiz-adv-x="255"/>
   <glyph glyph-name="igrave" horiz-adv-x="255" unicode="ì" d="M141 546l-106 144h100l81 -144h-75zM32 0l86 488h92l-86 -488h-92z"/>
   <glyph glyph-name="imacron" horiz-adv-x="255" unicode="ī" d="M46 573l12 64h266l-11 -64h-267zM32 0l86 488h92l-86 -488h-92z"/>
   <glyph glyph-name="iogonek" horiz-adv-x="255" unicode="į" d="M152 690h103l-18 -101h-102zM124 0c-3 -1 -118 -42 -131 -116c-5 -31 10 -44 29 -44c28 0 48 13 66 33l45 -38c-28 -34 -62 -55 -109 -55c-61 0 -99 43 -88 107c11 67 89 102 121 113h-25l86 488h92z"/>
   <glyph glyph-name="itilde" horiz-adv-x="255" unicode="ĩ" d="M256 556c-87 0 -95 74 -146 74c-35 0 -54 -32 -59 -70l-62 7c13 76 55 123 120 123c96 0 99 -76 148 -76c36 0 55 31 63 76l66 -6c-15 -86 -61 -128 -130 -128zM32 0l86 488h92l-86 -488h-92z"/>
   <glyph glyph-name="j" horiz-adv-x="261" unicode="j" d="M133 586l18 104h102l-17 -104h-103zM-39 -214c-40 0 -78 15 -78 15l34 73c4 0 25 -4 47 -4c37 0 52 26 57 59l99 559h93l-98 -556c-15 -85 -63 -146 -154 -146z"/>
   <glyph glyph-name="uni0237" horiz-adv-x="261" unicode="ȷ" d="M-39 -214c-39 0 -77 15 -77 15l34 76s24 -4 47 -4c38 0 52 28 58 60l98 555h94l-98 -557c-15 -85 -66 -145 -156 -145z"/>
   <glyph glyph-name="k" horiz-adv-x="529" unicode="k" d="M38 0l122 690h93l-79 -439l245 237h121l-203 -184l141 -304h-107l-103 245l-111 -102l-26 -143h-93z"/>
   <glyph glyph-name="kcommaaccent" horiz-adv-x="529" unicode="ķ" d="M38 0l122 690h93l-79 -439l245 237h121l-203 -184l141 -304h-107l-103 245l-111 -102l-26 -143h-93zM99 -219l90 165h110l-142 -165h-58z"/>
   <glyph glyph-name="kgreenlandic" horiz-adv-x="531" unicode="ĸ" d="M38 0l86 488h93l-43 -233l245 233h121l-203 -184l141 -304h-108l-102 244l-111 -102l-26 -142h-93z"/>
   <glyph glyph-name="l" horiz-adv-x="281" unicode="l" d="M130 -10c-70 0 -88 41 -75 112l104 588h93l-104 -587c-1 -7 -2 -31 23 -31c19 0 42 6 42 6l-11 -75s-39 -13 -72 -13z"/>
   <glyph glyph-name="lacute" horiz-adv-x="281" unicode="ĺ" d="M168 751l132 141h104l-163 -141h-73zM130 -10c-70 0 -88 41 -75 112l104 588h93l-104 -587c-1 -7 -2 -31 23 -31c19 0 42 6 42 6l-11 -75s-39 -13 -72 -13z"/>
   <glyph glyph-name="lcaron" horiz-adv-x="323" unicode="ľ" d="M80 -10c-70 0 -88 41 -75 112l104 588h93l-104 -587c-1 -7 -2 -31 23 -31c19 0 42 6 42 6l-11 -75s-39 -13 -72 -13zM198 490l98 200h110l-149 -200h-59z"/>
   <glyph glyph-name="lcommaaccent" horiz-adv-x="281" unicode="ļ" d="M130 -10c-70 0 -88 41 -75 112l104 588h93l-104 -587c-1 -7 -2 -31 23 -31c19 0 42 6 42 6l-11 -75s-39 -13 -72 -13zM-20 -219l90 165h110l-142 -165h-58z"/>
   <glyph glyph-name="lslash" horiz-adv-x="281" unicode="ł" d="M148 103c-1 -7 -2 -31 23 -31c19 0 42 6 42 6l-11 -75s-39 -13 -72 -13c-70 0 -88 41 -75 112l22 126l-90 -78h-75l179 154l68 386h93l-52 -292l108 93h75l-196 -169z"/>
   <glyph glyph-name="m" horiz-adv-x="847" unicode="m" d="M37 0l86 488h93l-12 -67c34 50 87 76 138 76c68 0 114 -33 132 -88c45 60 105 87 168 87c126 0 161 -100 143 -204l-52 -292h-93l50 287c12 65 5 126 -66 126c-76 0 -132 -69 -145 -143l-48 -270h-93l50 289c12 65 6 124 -65 124c-76 0 -132 -69 -145 -143l-48 -270h-93z "/>
   <glyph glyph-name="n" d="M36 0l86 488h94l-13 -67c43 50 104 75 157 75c127 0 161 -100 143 -204l-52 -292h-94l51 287c11 65 5 121 -66 121c-77 0 -152 -67 -165 -139l-47 -269h-94z" unicode="n"/>
   <glyph glyph-name="nacute" d="M281 549l132 141h104l-163 -141h-73zM36 0l86 488h94l-13 -67c43 50 104 75 157 75c127 0 161 -100 143 -204l-52 -292h-94l51 287c11 65 5 121 -66 121c-77 0 -152 -67 -165 -139l-47 -269h-94z" unicode="ń"/>
   <glyph glyph-name="ncaron" d="M329 528l-130 162h80l61 -84l93 84h84zM36 0l86 488h94l-13 -67c43 50 104 75 157 75c127 0 161 -100 143 -204l-52 -292h-94l51 287c11 65 5 121 -66 121c-77 0 -152 -67 -165 -139l-47 -269h-94z" unicode="ň"/>
   <glyph glyph-name="ncommaaccent" d="M36 0l86 488h94l-13 -67c43 50 104 75 157 75c127 0 161 -100 143 -204l-52 -292h-94l51 287c11 65 5 121 -66 121c-77 0 -152 -67 -165 -139l-47 -269h-94zM80 -219l90 165h110l-142 -165h-58z" unicode="ņ"/>
   <glyph glyph-name="eng" horiz-adv-x="573" unicode="ŋ" d="M226 -180l14 78h25c71 0 86 77 89 89l53 301c11 65 5 122 -66 122c-77 0 -152 -68 -165 -141l-48 -269h-92l86 488h92l-13 -68c43 51 104 76 158 76c126 0 159 -99 141 -203l-60 -338c-3 -15 -23 -135 -163 -135h-51z"/>
   <glyph glyph-name="ntilde" d="M413 556c-87 0 -95 74 -146 74c-35 0 -54 -32 -59 -70l-62 7c13 76 55 123 120 123c96 0 99 -76 148 -76c36 0 55 31 63 76l66 -6c-15 -86 -61 -128 -130 -128zM36 0l86 488h94l-13 -67c43 50 104 75 157 75c127 0 161 -100 143 -204l-52 -292h-94l51 287 c11 65 5 121 -66 121c-77 0 -152 -67 -165 -139l-47 -269h-94z" unicode="ñ"/>
   <glyph glyph-name="o" d="M237 -10c-145 0 -225 117 -200 259c24 135 140 245 281 245c145 0 225 -117 200 -259c-23 -135 -140 -245 -281 -245zM243 71c103 0 158 84 175 178c15 86 -8 164 -106 164c-102 0 -158 -84 -175 -178c-15 -86 9 -164 106 -164z" unicode="o"/>
   <glyph glyph-name="oacute" d="M281 549l132 141h104l-163 -141h-73zM237 -10c-145 0 -225 117 -200 259c24 135 140 245 281 245c145 0 225 -117 200 -259c-23 -135 -140 -245 -281 -245zM243 71c103 0 158 84 175 178c15 86 -8 164 -106 164c-102 0 -158 -84 -175 -178c-15 -86 9 -164 106 -164z" unicode="ó"/>
   <glyph glyph-name="uni01D2" d="M329 528l-130 162h80l61 -84l93 84h84zM237 -10c-145 0 -225 117 -200 259c24 135 140 245 281 245c145 0 225 -117 200 -259c-23 -135 -140 -245 -281 -245zM243 71c103 0 158 84 175 178c15 86 -8 164 -106 164c-102 0 -158 -84 -175 -178c-15 -86 9 -164 106 -164z " unicode="ǒ"/>
   <glyph glyph-name="ocircumflex" d="M170 536l188 173l131 -173h-80l-62 88l-93 -88h-84zM237 -10c-145 0 -225 117 -200 259c24 135 140 245 281 245c145 0 225 -117 200 -259c-23 -135 -140 -245 -281 -245zM243 71c103 0 158 84 175 178c15 86 -8 164 -106 164c-102 0 -158 -84 -175 -178 c-15 -86 9 -164 106 -164z" unicode="ô"/>
   <glyph glyph-name="uni1ED1" d="M317 751l132 141h104l-163 -141h-73zM170 536l188 173l131 -173h-80l-62 88l-93 -88h-84zM237 -10c-145 0 -225 117 -200 259c24 135 140 245 281 245c145 0 225 -117 200 -259c-23 -135 -140 -245 -281 -245zM243 71c103 0 158 84 175 178c15 86 -8 164 -106 164 c-102 0 -158 -84 -175 -178c-15 -86 9 -164 106 -164z" unicode="ố"/>
   <glyph glyph-name="uni1ED3" d="M334 748l-106 144h100l81 -144h-75zM170 536l188 173l131 -173h-80l-62 88l-93 -88h-84zM237 -10c-145 0 -225 117 -200 259c24 135 140 245 281 245c145 0 225 -117 200 -259c-23 -135 -140 -245 -281 -245zM243 71c103 0 158 84 175 178c15 86 -8 164 -106 164 c-102 0 -158 -84 -175 -178c-15 -86 9 -164 106 -164z" unicode="ồ"/>
   <glyph glyph-name="uni1ED7" d="M449 757c-87 0 -95 74 -146 74c-35 0 -54 -32 -59 -70l-62 7c13 76 55 123 120 123c96 0 99 -76 148 -76c36 0 55 31 63 76l66 -6c-15 -86 -61 -128 -130 -128zM170 536l188 173l131 -173h-80l-62 88l-93 -88h-84zM237 -10c-145 0 -225 117 -200 259 c24 135 140 245 281 245c145 0 225 -117 200 -259c-23 -135 -140 -245 -281 -245zM243 71c103 0 158 84 175 178c15 86 -8 164 -106 164c-102 0 -158 -84 -175 -178c-15 -86 9 -164 106 -164z" unicode="ỗ"/>
   <glyph glyph-name="odieresis" d="M209 572l15 88h87l-15 -88h-87zM375 572l15 88h87l-15 -88h-87zM237 -10c-145 0 -225 117 -200 259c24 135 140 245 281 245c145 0 225 -117 200 -259c-23 -135 -140 -245 -281 -245zM243 71c103 0 158 84 175 178c15 86 -8 164 -106 164c-102 0 -158 -84 -175 -178 c-15 -86 9 -164 106 -164z" unicode="ö"/>
   <glyph glyph-name="ograve" d="M298 546l-106 144h100l81 -144h-75zM237 -10c-145 0 -225 117 -200 259c24 135 140 245 281 245c145 0 225 -117 200 -259c-23 -135 -140 -245 -281 -245zM243 71c103 0 158 84 175 178c15 86 -8 164 -106 164c-102 0 -158 -84 -175 -178c-15 -86 9 -164 106 -164z" unicode="ò"/>
   <glyph glyph-name="ohungarumlaut" d="M197 542l133 148h98l-159 -148h-72zM360 542l133 148h105l-165 -148h-73zM237 -10c-145 0 -225 117 -200 259c24 135 140 245 281 245c145 0 225 -117 200 -259c-23 -135 -140 -245 -281 -245zM243 71c103 0 158 84 175 178c15 86 -8 164 -106 164 c-102 0 -158 -84 -175 -178c-15 -86 9 -164 106 -164z" unicode="ő"/>
   <glyph glyph-name="omacron" d="M203 573l12 64h266l-11 -64h-267zM237 -10c-145 0 -225 117 -200 259c24 135 140 245 281 245c145 0 225 -117 200 -259c-23 -135 -140 -245 -281 -245zM243 71c103 0 158 84 175 178c15 86 -8 164 -106 164c-102 0 -158 -84 -175 -178c-15 -86 9 -164 106 -164z" unicode="ō"/>
   <glyph glyph-name="oslash" d="M455 447c54 -47 79 -125 63 -212c-23 -135 -140 -245 -281 -245c-39 0 -73 8 -102 23l-9 -12h-57l29 39c-53 47 -76 123 -61 209c24 135 140 245 281 245c37 0 71 -8 99 -22l11 15h57zM137 235c-8 -47 -5 -91 15 -122l214 290c-15 6 -32 10 -54 10 c-102 0 -158 -84 -175 -178zM418 249c9 48 5 94 -17 125l-215 -291c16 -8 34 -12 57 -12c103 0 158 84 175 178z" unicode="ø"/>
   <glyph glyph-name="otilde" d="M413 556c-87 0 -95 74 -146 74c-35 0 -54 -32 -59 -70l-62 7c13 76 55 123 120 123c96 0 99 -76 148 -76c36 0 55 31 63 76l66 -6c-15 -86 -61 -128 -130 -128zM237 -10c-145 0 -225 117 -200 259c24 135 140 245 281 245c145 0 225 -117 200 -259 c-23 -135 -140 -245 -281 -245zM243 71c103 0 158 84 175 178c15 86 -8 164 -106 164c-102 0 -158 -84 -175 -178c-15 -86 9 -164 106 -164z" unicode="õ"/>
   <glyph glyph-name="oe" horiz-adv-x="889" unicode="œ" d="M232 -10c-146 0 -226 117 -201 259c24 135 140 245 281 245c83 0 140 -40 167 -95c46 60 108 95 187 95c170 0 199 -128 176 -262c-2 -9 -7 -23 -7 -23h-338c-9 -73 24 -129 106 -129c56 0 100 15 144 54l58 -60c-66 -58 -131 -80 -207 -80c-89 0 -143 39 -168 92 c-51 -61 -120 -96 -198 -96zM510 281l250 7c9 77 -20 125 -99 125c-81 0 -132 -61 -151 -132zM237 72c101 0 157 81 175 177c15 88 -9 163 -106 163c-102 0 -158 -81 -174 -177c-16 -89 8 -163 105 -163z"/>
   <glyph glyph-name="p" horiz-adv-x="573" unicode="p" d="M0 -214l124 702h93l-12 -57c43 46 96 67 157 67c131 0 184 -119 159 -261c-23 -135 -114 -247 -241 -247c-65 0 -111 27 -136 72l-51 -276h-93zM263 74c93 0 149 81 166 176c16 89 -10 165 -97 165c-93 0 -148 -82 -165 -178c-16 -89 8 -163 96 -163z"/>
   <glyph glyph-name="thorn" horiz-adv-x="582" unicode="þ" d="M2 -214l160 904h93l-47 -256c40 42 92 64 154 64c134 0 186 -119 161 -261c-24 -135 -113 -247 -242 -247c-67 0 -110 28 -136 69l-50 -273h-93zM266 73c94 0 152 80 169 177c16 90 -10 164 -100 164c-93 0 -151 -80 -168 -177c-16 -90 11 -164 99 -164z"/>
   <glyph glyph-name="q" horiz-adv-x="578" unicode="q" d="M308 -214l49 271c-41 -46 -95 -67 -155 -67c-132 0 -185 119 -160 261c24 135 114 247 240 247c66 0 112 -27 138 -72l12 62h93l-124 -702h-93zM232 74c92 0 146 80 163 176c16 89 -7 165 -95 165c-92 0 -149 -83 -166 -178c-16 -89 10 -163 98 -163z"/>
   <glyph glyph-name="r" horiz-adv-x="381" unicode="r" d="M30 0l86 488h93l-14 -77c34 57 92 84 139 84c31 0 68 -10 91 -30l-48 -72c-14 14 -33 18 -51 18c-85 0 -148 -91 -167 -200l-37 -211h-92z"/>
   <glyph glyph-name="racute" horiz-adv-x="381" unicode="ŕ" d="M192 549l132 141h104l-163 -141h-73zM30 0l86 488h93l-14 -77c34 57 92 84 139 84c31 0 68 -10 91 -30l-48 -72c-14 14 -33 18 -51 18c-85 0 -148 -91 -167 -200l-37 -211h-92z"/>
   <glyph glyph-name="rcaron" horiz-adv-x="381" unicode="ř" d="M239 528l-130 162h80l61 -84l93 84h84zM30 0l86 488h93l-14 -77c34 57 92 84 139 84c31 0 68 -10 91 -30l-48 -72c-14 14 -33 18 -51 18c-85 0 -148 -91 -167 -200l-37 -211h-92z"/>
   <glyph glyph-name="rcommaaccent" horiz-adv-x="381" unicode="ŗ" d="M30 0l86 488h93l-14 -77c34 57 92 84 139 84c31 0 68 -10 91 -30l-48 -72c-14 14 -33 18 -51 18c-85 0 -148 -91 -167 -200l-37 -211h-92zM-78 -219l90 165h110l-142 -165h-58z"/>
   <glyph glyph-name="s" horiz-adv-x="437" unicode="s" d="M177 -10c-98 0 -161 62 -173 131l80 30c8 -43 39 -81 97 -81c54 0 98 28 107 77c18 103 -250 31 -218 212c15 88 101 136 182 136c87 0 136 -49 156 -103l-73 -33c-13 34 -37 58 -88 58c-45 0 -84 -23 -91 -64c-16 -88 254 -24 221 -215c-18 -98 -113 -148 -200 -148z "/>
   <glyph glyph-name="sacute" horiz-adv-x="437" unicode="ś" d="M214 549l132 141h104l-163 -141h-73zM177 -10c-98 0 -161 62 -173 131l80 30c8 -43 39 -81 97 -81c54 0 98 28 107 77c18 103 -250 31 -218 212c15 88 101 136 182 136c87 0 136 -49 156 -103l-73 -33c-13 34 -37 58 -88 58c-45 0 -84 -23 -91 -64 c-16 -88 254 -24 221 -215c-18 -98 -113 -148 -200 -148z"/>
   <glyph glyph-name="scaron" horiz-adv-x="437" unicode="š" d="M261 528l-130 162h80l61 -84l93 84h84zM177 -10c-98 0 -161 62 -173 131l80 30c8 -43 39 -81 97 -81c54 0 98 28 107 77c18 103 -250 31 -218 212c15 88 101 136 182 136c87 0 136 -49 156 -103l-73 -33c-13 34 -37 58 -88 58c-45 0 -84 -23 -91 -64 c-16 -88 254 -24 221 -215c-18 -98 -113 -148 -200 -148z"/>
   <glyph glyph-name="scedilla" horiz-adv-x="437" unicode="ş" d="M156 353c-16 -88 254 -24 221 -215c-15 -81 -82 -129 -155 -144l-52 -57c57 -16 84 -46 76 -89c-9 -53 -61 -92 -110 -92c-47 0 -76 32 -83 67l54 19c1 -16 12 -28 30 -28c22 0 48 19 53 45c3 16 -11 25 -33 33l-63 18l60 81c-85 9 -139 67 -150 130l80 30 c8 -43 39 -81 97 -81c54 0 98 28 107 77c18 103 -250 31 -218 212c15 88 101 136 182 136c87 0 136 -49 156 -103l-73 -33c-13 34 -37 58 -88 58c-45 0 -84 -23 -91 -64z"/>
   <glyph glyph-name="scommaaccent" horiz-adv-x="437" unicode="ș" d="M177 -10c-98 0 -161 62 -173 131l80 30c8 -43 39 -81 97 -81c54 0 98 28 107 77c18 103 -250 31 -218 212c15 88 101 136 182 136c87 0 136 -49 156 -103l-73 -33c-13 34 -37 58 -88 58c-45 0 -84 -23 -91 -64c-16 -88 254 -24 221 -215c-18 -98 -113 -148 -200 -148z M35 -219l90 165h110l-142 -165h-58z"/>
   <glyph glyph-name="germandbls" horiz-adv-x="515" unicode="ß" d="M291 -9c-54 0 -95 17 -137 38l49 79c33 -21 64 -29 95 -29c43 0 84 34 91 76c16 89 -123 117 -104 226c16 85 121 85 133 157c9 46 -15 80 -84 80c-72 0 -121 -49 -132 -113l-89 -505h-99l90 511c22 123 123 189 235 189c97 0 194 -67 174 -180 c-16 -98 -131 -97 -141 -156c-9 -57 140 -80 116 -218c-15 -92 -102 -155 -197 -155z"/>
   <glyph glyph-name="t" horiz-adv-x="343" unicode="t" d="M189 -10c-93 0 -128 59 -113 144l48 273h-77l14 81h78l19 115l104 75l-33 -190h126l-14 -81h-126l-49 -280c-8 -41 7 -55 38 -55c43 0 72 14 72 14l-12 -81s-33 -15 -75 -15z"/>
   <glyph glyph-name="tbar" horiz-adv-x="343" unicode="ŧ" d="M341 407h-126l-25 -140h133l-8 -46h-133l-16 -94c-8 -41 7 -55 38 -55c43 0 72 14 72 14l-12 -81s-33 -15 -75 -15c-93 0 -128 59 -113 144l15 87h-86l8 46h86l25 140h-77l14 81h78l19 115l104 75l-33 -190h126z"/>
   <glyph glyph-name="tcaron" horiz-adv-x="343" unicode="ť" d="M297 547l98 200h110l-149 -200h-59zM185 -10c-93 0 -124 62 -109 144l48 273h-77l14 81h78l19 115l104 75l-33 -190h126l-14 -81h-126l-49 -280c-8 -44 9 -55 36 -55c47 0 74 14 74 14l-12 -81s-30 -15 -79 -15z"/>
   <glyph glyph-name="uni0163" horiz-adv-x="343" unicode="ţ" d="M215 407l-49 -280c-8 -41 7 -55 38 -55c43 0 72 14 72 14l-12 -81s-20 -9 -49 -13l-50 -55c57 -16 84 -46 76 -89c-9 -53 -61 -92 -110 -92c-47 0 -76 32 -83 67l54 19c1 -16 12 -28 30 -28c22 0 48 19 53 45c3 16 -11 25 -33 33l-63 18l62 84c-64 15 -88 68 -75 140 l48 273h-77l14 81h78l19 115l104 75l-33 -190h126l-14 -81h-126z"/>
   <glyph glyph-name="uni021B" horiz-adv-x="343" unicode="ț" d="M189 -10c-93 0 -128 59 -113 144l48 273h-77l14 81h78l19 115l104 75l-33 -190h126l-14 -81h-126l-49 -280c-8 -41 7 -55 38 -55c43 0 72 14 72 14l-12 -81s-33 -15 -75 -15zM30 -219l90 165h110l-142 -165h-58z"/>
   <glyph glyph-name="u" horiz-adv-x="574" unicode="u" d="M201 -11c-127 0 -160 105 -141 213l51 286h94l-52 -290c-11 -65 -6 -125 65 -125c77 0 154 71 167 143l47 272h94l-86 -488h-94l13 69c-34 -43 -95 -80 -158 -80z"/>
   <glyph glyph-name="uacute" horiz-adv-x="574" unicode="ú" d="M284 549l132 141h104l-163 -141h-73zM201 -11c-127 0 -160 105 -141 213l51 286h94l-52 -290c-11 -65 -6 -125 65 -125c77 0 154 71 167 143l47 272h94l-86 -488h-94l13 69c-34 -43 -95 -80 -158 -80z"/>
   <glyph glyph-name="uni01D4" horiz-adv-x="574" unicode="ǔ" d="M331 528l-130 162h80l61 -84l93 84h84zM201 -11c-127 0 -160 105 -141 213l51 286h94l-52 -290c-11 -65 -6 -125 65 -125c77 0 154 71 167 143l47 272h94l-86 -488h-94l13 69c-34 -43 -95 -80 -158 -80z"/>
   <glyph glyph-name="ucircumflex" horiz-adv-x="574" unicode="û" d="M172 536l188 173l131 -173h-80l-62 88l-93 -88h-84zM201 -11c-127 0 -160 105 -141 213l51 286h94l-52 -290c-11 -65 -6 -125 65 -125c77 0 154 71 167 143l47 272h94l-86 -488h-94l13 69c-34 -43 -95 -80 -158 -80z"/>
   <glyph glyph-name="udieresis" horiz-adv-x="574" unicode="ü" d="M211 572l15 88h87l-15 -88h-87zM377 572l15 88h87l-15 -88h-87zM201 -11c-127 0 -160 105 -141 213l51 286h94l-52 -290c-11 -65 -6 -125 65 -125c77 0 154 71 167 143l47 272h94l-86 -488h-94l13 69c-34 -43 -95 -80 -158 -80z"/>
   <glyph glyph-name="uni01D8" horiz-adv-x="574" unicode="ǘ" d="M313 716l132 141h104l-163 -141h-73zM211 572l15 88h87l-15 -88h-87zM377 572l15 88h87l-15 -88h-87zM201 -11c-127 0 -160 105 -141 213l51 286h94l-52 -290c-11 -65 -6 -125 65 -125c77 0 154 71 167 143l47 272h94l-86 -488h-94l13 69c-34 -43 -95 -80 -158 -80z"/>
   <glyph glyph-name="uni01DA" horiz-adv-x="574" unicode="ǚ" d="M360 695l-130 162h80l61 -84l93 84h84zM211 572l15 88h87l-15 -88h-87zM377 572l15 88h87l-15 -88h-87zM201 -11c-127 0 -160 105 -141 213l51 286h94l-52 -290c-11 -65 -6 -125 65 -125c77 0 154 71 167 143l47 272h94l-86 -488h-94l13 69c-34 -43 -95 -80 -158 -80z "/>
   <glyph glyph-name="uni01DC" horiz-adv-x="574" unicode="ǜ" d="M330 713l-106 144h100l81 -144h-75zM211 572l15 88h87l-15 -88h-87zM377 572l15 88h87l-15 -88h-87zM201 -11c-127 0 -160 105 -141 213l51 286h94l-52 -290c-11 -65 -6 -125 65 -125c77 0 154 71 167 143l47 272h94l-86 -488h-94l13 69c-34 -43 -95 -80 -158 -80z"/>
   <glyph glyph-name="uni01D6" horiz-adv-x="574" unicode="ǖ" d="M234 740l12 64h266l-11 -64h-267zM211 572l15 88h87l-15 -88h-87zM377 572l15 88h87l-15 -88h-87zM201 -11c-127 0 -160 105 -141 213l51 286h94l-52 -290c-11 -65 -6 -125 65 -125c77 0 154 71 167 143l47 272h94l-86 -488h-94l13 69c-34 -43 -95 -80 -158 -80z"/>
   <glyph glyph-name="ugrave" horiz-adv-x="574" unicode="ù" d="M301 546l-106 144h100l81 -144h-75zM201 -11c-127 0 -160 105 -141 213l51 286h94l-52 -290c-11 -65 -6 -125 65 -125c77 0 154 71 167 143l47 272h94l-86 -488h-94l13 69c-34 -43 -95 -80 -158 -80z"/>
   <glyph glyph-name="uhungarumlaut" horiz-adv-x="574" unicode="ű" d="M200 542l133 148h98l-159 -148h-72zM363 542l133 148h105l-165 -148h-73zM201 -11c-127 0 -160 105 -141 213l51 286h94l-52 -290c-11 -65 -6 -125 65 -125c77 0 154 71 167 143l47 272h94l-86 -488h-94l13 69c-34 -43 -95 -80 -158 -80z"/>
   <glyph glyph-name="umacron" horiz-adv-x="574" unicode="ū" d="M205 573l12 64h266l-11 -64h-267zM201 -11c-127 0 -160 105 -141 213l51 286h94l-52 -290c-11 -65 -6 -125 65 -125c77 0 154 71 167 143l47 272h94l-86 -488h-94l13 69c-34 -43 -95 -80 -158 -80z"/>
   <glyph glyph-name="uogonek" horiz-adv-x="574" unicode="ų" d="M338 -160c28 0 48 13 65 33l46 -39c-29 -33 -62 -54 -109 -54c-62 0 -99 43 -88 107c12 69 94 104 124 113h-30l13 69c-34 -43 -95 -80 -158 -80c-127 0 -160 105 -141 213l51 286h94l-52 -290c-11 -65 -6 -125 65 -125c77 0 154 71 167 143l47 272h94l-86 -488 c-4 -1 -118 -42 -131 -117c-5 -31 9 -43 29 -43z"/>
   <glyph glyph-name="uring" horiz-adv-x="574" unicode="ů" d="M333 525c-60 0 -98 50 -87 110c9 53 60 95 114 95c58 0 99 -47 89 -108c-10 -54 -61 -97 -116 -97zM334 579c30 0 58 25 63 56c4 24 -10 41 -37 41c-32 0 -57 -22 -62 -54c-5 -26 11 -43 36 -43zM201 -11c-127 0 -160 105 -141 213l51 286h94l-52 -290 c-11 -65 -6 -125 65 -125c77 0 154 71 167 143l47 272h94l-86 -488h-94l13 69c-34 -43 -95 -80 -158 -80z"/>
   <glyph glyph-name="utilde" horiz-adv-x="574" unicode="ũ" d="M416 556c-87 0 -95 74 -146 74c-35 0 -54 -32 -59 -70l-62 7c13 76 55 123 120 123c96 0 99 -76 148 -76c36 0 55 31 63 76l66 -6c-15 -86 -61 -128 -130 -128zM201 -11c-127 0 -160 105 -141 213l51 286h94l-52 -290c-11 -65 -6 -125 65 -125c77 0 154 71 167 143 l47 272h94l-86 -488h-94l13 69c-34 -43 -95 -80 -158 -80z"/>
   <glyph glyph-name="v" horiz-adv-x="481" unicode="v" d="M152 0l-103 488h99l62 -367l194 367h102l-275 -488h-79z"/>
   <glyph glyph-name="w" horiz-adv-x="706" unicode="w" d="M111 -1l-57 489h98l29 -355l166 355h82l40 -354l156 354h101l-229 -488h-87l-42 363l-171 -364h-86z"/>
   <glyph glyph-name="wacute" horiz-adv-x="706" unicode="ẃ" d="M349 549l132 141h104l-163 -141h-73zM111 -1l-57 489h98l29 -355l166 355h82l40 -354l156 354h101l-229 -488h-87l-42 363l-171 -364h-86z"/>
   <glyph glyph-name="wcircumflex" horiz-adv-x="706" unicode="ŵ" d="M238 536l188 173l131 -173h-80l-62 88l-93 -88h-84zM111 -1l-57 489h98l29 -355l166 355h82l40 -354l156 354h101l-229 -488h-87l-42 363l-171 -364h-86z"/>
   <glyph glyph-name="wdieresis" horiz-adv-x="706" unicode="ẅ" d="M277 572l15 88h87l-15 -88h-87zM443 572l15 88h87l-15 -88h-87zM111 -1l-57 489h98l29 -355l166 355h82l40 -354l156 354h101l-229 -488h-87l-42 363l-171 -364h-86z"/>
   <glyph glyph-name="wgrave" horiz-adv-x="706" unicode="ẁ" d="M366 546l-106 144h100l81 -144h-75zM111 -1l-57 489h98l29 -355l166 355h82l40 -354l156 354h101l-229 -488h-87l-42 363l-171 -364h-86z"/>
   <glyph glyph-name="x" horiz-adv-x="474" unicode="x" d="M-35 0l209 246l-121 242h111l76 -173l140 173h116l-210 -242l122 -246h-112l-76 176l-140 -176h-115z"/>
   <glyph glyph-name="y" horiz-adv-x="498" unicode="y" d="M31 -210l124 218l-103 480h100l68 -373l199 373h104l-392 -698h-100z"/>
   <glyph glyph-name="yacute" horiz-adv-x="498" unicode="ý" d="M246 549l132 141h104l-163 -141h-73zM31 -210l124 218l-103 480h100l68 -373l199 373h104l-392 -698h-100z"/>
   <glyph glyph-name="ycircumflex" horiz-adv-x="498" unicode="ŷ" d="M134 536l188 173l131 -173h-80l-62 88l-93 -88h-84zM31 -210l124 218l-103 480h100l68 -373l199 373h104l-392 -698h-100z"/>
   <glyph glyph-name="ydieresis" horiz-adv-x="498" unicode="ÿ" d="M173 572l15 88h87l-15 -88h-87zM339 572l15 88h87l-15 -88h-87zM31 -210l124 218l-103 480h100l68 -373l199 373h104l-392 -698h-100z"/>
   <glyph glyph-name="ygrave" horiz-adv-x="498" unicode="ỳ" d="M263 546l-106 144h100l81 -144h-75zM31 -210l124 218l-103 480h100l68 -373l199 373h104l-392 -698h-100z"/>
   <glyph glyph-name="uni1EF9" horiz-adv-x="498" unicode="ỹ" d="M378 556c-87 0 -95 74 -146 74c-35 0 -54 -32 -59 -70l-62 7c13 76 55 123 120 123c96 0 99 -76 148 -76c36 0 55 31 63 76l66 -6c-15 -86 -61 -128 -130 -128zM31 -210l124 218l-103 480h100l68 -373l199 373h104l-392 -698h-100z"/>
   <glyph glyph-name="z" horiz-adv-x="457" unicode="z" d="M-23 0l10 66l345 341h-269l14 81h389l-11 -72l-340 -337h279l-14 -79h-403z"/>
   <glyph glyph-name="zacute" horiz-adv-x="457" unicode="ź" d="M225 549l132 141h104l-163 -141h-73zM-23 0l10 66l345 341h-269l14 81h389l-11 -72l-340 -337h279l-14 -79h-403z"/>
   <glyph glyph-name="zcaron" horiz-adv-x="457" unicode="ž" d="M272 528l-130 162h80l61 -84l93 84h84zM-23 0l10 66l345 341h-269l14 81h389l-11 -72l-340 -337h279l-14 -79h-403z"/>
   <glyph glyph-name="zdotaccent" horiz-adv-x="457" unicode="ż" d="M282 565c-40 0 -65 34 -58 75c6 34 37 60 73 60c40 0 67 -33 59 -74c-5 -34 -39 -61 -74 -61zM-23 0l10 66l345 341h-269l14 81h389l-11 -72l-340 -337h279l-14 -79h-403z"/>
   <glyph glyph-name="ordfeminine" horiz-adv-x="391" unicode="ª" d="M171 346c-63 0 -111 43 -99 110c12 71 71 97 145 97l103 3c10 58 -4 92 -62 92c-43 0 -78 -28 -100 -53l-43 36c43 49 87 69 146 69c90 0 131 -58 117 -141l-37 -206h-51l7 50c-37 -41 -76 -57 -126 -57zM185 400c60 0 116 54 126 104l-95 -2c-40 0 -75 -22 -82 -59 c-4 -26 24 -43 51 -43z"/>
   <glyph glyph-name="ordmasculine" horiz-adv-x="419" unicode="º" d="M225 347c-102 0 -157 83 -140 183c17 94 96 170 193 170c102 0 158 -83 140 -183c-16 -93 -96 -170 -193 -170zM226 405c74 0 114 58 126 125c11 61 -6 113 -74 113c-74 0 -114 -58 -127 -126c-10 -61 7 -112 75 -112z"/>
   <glyph glyph-name="pi" horiz-adv-x="462" unicode="π" d="M352 -10c-66 0 -97 60 -88 115l54 303h-131l-72 -408h-80l72 408h-40l14 80h371l-14 -80h-40l-54 -307c-6 -30 4 -43 20 -43c9 0 19 4 29 11l15 -65c-19 -11 -39 -14 -56 -14z"/>
   <glyph glyph-name="zero" horiz-adv-x="586" unicode="0" d="M252 -10c-204 0 -234 208 -207 362c27 148 124 349 318 349c181 0 237 -184 205 -364c-30 -171 -145 -347 -316 -347zM257 80c121 0 192 156 212 272c21 114 6 257 -114 257c-124 0 -196 -150 -217 -271c-20 -112 -5 -258 119 -258z"/>
   <glyph glyph-name="one" horiz-adv-x="382" unicode="1" d="M142 0l91 517h-158l13 77h82c51 0 89 35 98 84l2 12h91l-122 -690h-97z"/>
   <glyph glyph-name="two" horiz-adv-x="558" unicode="2" d="M-22 0l13 83c65 37 187 114 274 193c87 73 149 139 165 227c12 68 -19 110 -89 110c-81 0 -141 -71 -160 -163l-94 14c24 137 125 235 261 235c129 0 201 -83 179 -211c-18 -97 -101 -191 -209 -284c-85 -68 -134 -97 -175 -121l347 2l-15 -85h-497z"/>
   <glyph glyph-name="three" horiz-adv-x="556" unicode="3" d="M218 -10c-133 0 -233 74 -208 218h92c-16 -86 44 -131 123 -131c80 0 164 47 179 132c14 79 -42 114 -120 114h-59l15 86h55c63 0 113 39 125 106c11 62 -33 97 -94 97c-68 0 -128 -46 -142 -115l-88 15c22 121 125 188 237 188s200 -70 179 -190 c-10 -54 -44 -106 -98 -140c68 -30 91 -98 79 -176c-24 -138 -146 -204 -275 -204z"/>
   <glyph glyph-name="four" horiz-adv-x="566" unicode="4" d="M287 0l31 175h-319l9 56l412 459h85l-76 -428h110l-15 -87h-110l-31 -175h-96zM135 262h198l51 280z"/>
   <glyph glyph-name="five" horiz-adv-x="561" unicode="5" d="M240 -10c-119 0 -199 92 -204 203l92 20c3 -65 28 -138 119 -138c87 0 159 82 173 161c13 74 -24 140 -111 140c-52 0 -110 -28 -145 -72l-80 32l125 354h360l-16 -87h-284l-66 -181c48 28 92 39 130 39c123 0 207 -108 184 -239c-22 -124 -148 -232 -277 -232z"/>
   <glyph glyph-name="six" horiz-adv-x="572" unicode="6" d="M252 -10c-134 0 -222 107 -199 240c7 42 25 81 53 116l266 344h111l-198 -244c15 3 28 4 40 4c134 0 226 -98 202 -231c-21 -122 -138 -229 -275 -229zM260 79c82 0 160 68 175 152c14 77 -38 138 -115 138c-82 0 -160 -68 -175 -151c-14 -77 38 -139 115 -139z"/>
   <glyph glyph-name="seven" horiz-adv-x="503" unicode="7" d="M35 0l400 603h-355l15 87h472l-8 -49l-415 -641h-109z"/>
   <glyph glyph-name="eight" horiz-adv-x="580" unicode="8" d="M241 -10c-129 0 -232 70 -207 211c13 77 64 139 143 175c-43 31 -63 86 -51 149c19 112 126 175 233 175c111 0 199 -69 178 -189c-10 -56 -46 -108 -102 -142c64 -33 95 -98 80 -181c-24 -136 -148 -198 -274 -198zM309 406c66 0 125 42 137 109c12 64 -31 99 -92 99 c-60 0 -124 -40 -136 -105c-11 -63 26 -103 91 -103zM248 74c80 0 158 47 174 134c14 79 -43 119 -121 119c-84 0 -159 -47 -174 -132c-14 -81 47 -121 121 -121z"/>
   <glyph glyph-name="nine" horiz-adv-x="566" unicode="9" d="M117 0l196 244c-14 -3 -27 -4 -39 -4c-134 0 -226 98 -202 231c21 122 137 229 274 229c134 0 223 -107 200 -240c-8 -42 -26 -81 -54 -116l-265 -344h-110zM278 321c82 0 161 68 176 151c13 77 -38 139 -115 139c-82 0 -161 -68 -175 -152c-14 -77 37 -138 114 -138z "/>
   <glyph glyph-name="fraction" horiz-adv-x="460" unicode="⁄" d="M-54 0l497 690h93l-497 -690h-93z"/>
   <glyph glyph-name="asterisk" horiz-adv-x="380" unicode="*" d="M152 412l-54 40l97 89l-114 17l34 66l101 -45l5 111h73l-36 -111l116 45l11 -66l-121 -17l67 -89l-64 -40l-38 108z"/>
   <glyph glyph-name="backslash" horiz-adv-x="460" unicode="\" d="M286 -210l-207 950h88l207 -950h-88z"/>
   <glyph glyph-name="periodcentered" horiz-adv-x="265" unicode="·" d="M145 331c-39 0 -64 33 -57 73c6 34 37 59 72 59c39 0 64 -32 58 -72c-7 -33 -38 -60 -73 -60z"/>
   <glyph glyph-name="bullet" horiz-adv-x="382" unicode="•" d="M166 119c-66 0 -110 55 -99 123c11 60 70 109 132 109c66 0 110 -55 98 -123c-10 -60 -69 -109 -131 -109z"/>
   <glyph glyph-name="colon" horiz-adv-x="200" unicode=":" d="M58 357l19 109h110l-19 -109h-110zM-5 0l19 109h110l-19 -109h-110z"/>
   <glyph glyph-name="comma" horiz-adv-x="225" unicode="," d="M-32 -110l91 239h114l-145 -239h-60z"/>
   <glyph glyph-name="ellipsis" horiz-adv-x="606" unicode="…" d="M-2 0l19 109h106l-19 -109h-106zM200 0l19 109h106l-19 -109h-106zM402 0l19 109h106l-19 -109h-106z"/>
   <glyph glyph-name="exclam" horiz-adv-x="268" unicode="!" d="M83 196l76 505h98l-104 -505h-70zM29 0l19 109h110l-19 -109h-110z"/>
   <glyph glyph-name="exclamdown" horiz-adv-x="278" unicode="¡" d="M108 379l20 109h110l-20 -109h-110zM10 -213l103 505h70l-75 -505h-98z"/>
   <glyph glyph-name="numbersign" horiz-adv-x="722" unicode="#" d="M94 0l81 209h-116l12 67h130l56 148h-120l12 68h134l82 208h73l-83 -213h142l82 213h74l-82 -209h116l-12 -67h-130l-56 -148h120l-12 -68h-134l-82 -208h-73l83 213h-142l-82 -213h-73zM274 276h142l56 148h-142z"/>
   <glyph glyph-name="period" horiz-adv-x="202" unicode="." d="M-2 0l19 109h106l-19 -109h-106z"/>
   <glyph glyph-name="question" horiz-adv-x="504" unicode="?" d="M196 194l17 97c27 150 181 101 204 232c13 69 -33 98 -101 98c-76 0 -133 -45 -148 -120l-84 6c23 123 120 192 233 193c116 0 204 -67 182 -191c-30 -168 -191 -142 -206 -225l-16 -90h-81zM149 0l19 109h110l-19 -109h-110z"/>
   <glyph glyph-name="questiondown" horiz-adv-x="504" unicode="¿" d="M212 379l19 109h110l-19 -109h-110zM173 -212c-116 0 -203 67 -181 191c30 168 190 142 205 225l16 90h81l-17 -97c-26 -150 -180 -101 -203 -232c-13 -69 32 -98 99 -98c72 0 134 42 148 115l84 -6c-22 -120 -123 -187 -232 -188z"/>
   <glyph glyph-name="quotedbl" horiz-adv-x="346" unicode='&quot;' d="M85 456l42 234h80l-42 -234h-80zM242 456l41 234h80l-41 -234h-80z"/>
   <glyph glyph-name="quotesingle" horiz-adv-x="170" unicode="&apos;" d="M78 470l41 234h80l-41 -234h-80z"/>
   <glyph glyph-name="semicolon" horiz-adv-x="240" unicode=";" d="M98 357l19 109h110l-19 -109h-110zM-82 -110l91 239h114l-145 -239h-60z"/>
   <glyph glyph-name="slash" horiz-adv-x="460" unicode="/" d="M-89 -210l540 950h91l-540 -950h-91z"/>
   <glyph glyph-name="twodotenleader" horiz-adv-x="404" unicode="‥" d="M-2 0l19 109h106l-19 -109h-106zM200 0l19 109h106l-19 -109h-106z"/>
   <glyph glyph-name="underscore" horiz-adv-x="485" unicode="_" d="M-18 -70l13 70h395l-13 -70h-395z"/>
   <glyph glyph-name="braceleft" horiz-adv-x="380" unicode="{" d="M146 -250c-40 0 -62 26 -73 56c-9 16 -10 47 -2 90l39 224c7 38 -22 58 -49 70l9 73c45 16 73 46 82 95l46 261c15 84 51 131 131 131h25c11 0 21 -1 31 -1l-7 -60c-13 3 -29 4 -36 4c-34 0 -52 -15 -57 -40l-54 -309c-11 -61 -44 -95 -102 -126c42 -22 70 -54 61 -103 l-39 -222c-10 -57 1 -86 39 -86c9 0 20 3 30 5l-7 -61c-10 -1 -21 -1 -31 -1h-36z"/>
   <glyph glyph-name="braceright" horiz-adv-x="380" unicode="}" d="M15 -250c-11 0 -22 1 -32 1l7 59c9 -2 18 -3 23 -3c43 0 69 35 79 92l39 223c9 50 46 78 98 103c-45 28 -67 66 -57 126l54 309c5 25 -5 33 -34 33c-12 0 -29 -2 -44 -6l7 62c10 1 20 1 30 1h26c80 0 103 -53 88 -138l-46 -261c-8 -48 6 -74 46 -90l-9 -74 c-31 -12 -72 -35 -79 -74l-39 -223c-8 -43 -17 -74 -31 -94c-23 -26 -50 -46 -91 -46h-35z"/>
   <glyph glyph-name="bracketleft" horiz-adv-x="352" unicode="[" d="M5 -213l170 963h191l-10 -59h-115l-149 -844h115l-11 -60h-191z"/>
   <glyph glyph-name="bracketright" horiz-adv-x="352" unicode="]" d="M-20 -213l11 60h115l149 844h-115l10 59h191l-170 -963h-191z"/>
   <glyph glyph-name="parenleft" horiz-adv-x="308" unicode="(" d="M85 -222c-56 107 -60 334 -33 492c30 169 102 357 202 483l82 -6c-107 -137 -181 -312 -212 -492c-31 -174 -22 -343 37 -482z"/>
   <glyph glyph-name="parenright" horiz-adv-x="308" unicode=")" d="M-34 -221c107 137 179 312 210 490c30 168 20 350 -37 483l78 -5c54 -122 64 -309 31 -490c-27 -155 -109 -378 -202 -483z"/>
   <glyph glyph-name="emdash" horiz-adv-x="655" unicode="—" d="M-13 268l13 70h675l-13 -70h-675z"/>
   <glyph glyph-name="endash" horiz-adv-x="415" unicode="–" d="M27 268l13 70h355l-13 -70h-355z"/>
   <glyph glyph-name="hyphen" horiz-adv-x="435" unicode="-" d="M86 285l12 70h265l-12 -70h-265z"/>
   <glyph glyph-name="uni00AD" horiz-adv-x="415" unicode="­" d="M37 268l13 70h335l-13 -70h-335z"/>
   <glyph glyph-name="uni2015" horiz-adv-x="655" unicode="―" d="M27 268l13 70h595l-13 -70h-595z"/>
   <glyph glyph-name="guillemotleft" horiz-adv-x="501" unicode="«" d="M225 84l-164 165l220 166l-14 -89l-106 -77l78 -76zM402 84l-164 165l220 166l-14 -89l-106 -77l78 -76z"/>
   <glyph glyph-name="guillemotright" horiz-adv-x="501" unicode="»" d="M33 84l13 89l107 76l-78 77l14 89l164 -166zM210 84l13 89l107 76l-78 77l14 89l164 -166z"/>
   <glyph glyph-name="guilsinglleft" horiz-adv-x="324" unicode="‹" d="M223 84l-164 165l220 166l-13 -89l-107 -77l78 -76z"/>
   <glyph glyph-name="guilsinglright" horiz-adv-x="324" unicode="›" d="M33 84l13 89l107 76l-78 77l14 89l164 -166z"/>
   <glyph glyph-name="quotedblbase" horiz-adv-x="350" unicode="„" d="M-29 -110l104 239h109l-155 -239h-58zM121 -110l104 239h109l-155 -239h-58z"/>
   <glyph glyph-name="quotedblleft" horiz-adv-x="383" unicode="“" d="M169 438l-70 252h110l18 -252h-58zM325 438l-69 252h110l18 -252h-59z"/>
   <glyph glyph-name="quotedblright" horiz-adv-x="356" unicode="”" d="M66 438l107 252h113l-159 -252h-61zM222 438l107 252h113l-159 -252h-61z"/>
   <glyph glyph-name="quoteleft" horiz-adv-x="198" unicode="‘" d="M130 438l-70 252h111l17 -252h-58z"/>
   <glyph glyph-name="quoteright" horiz-adv-x="200" unicode="’" d="M66 438l107 252h113l-159 -252h-61z"/>
   <glyph glyph-name="quotesinglbase" horiz-adv-x="200" unicode="‚" d="M-29 -110l104 239h109l-155 -239h-58z"/>
   <glyph glyph-name="space" horiz-adv-x="273" unicode=" "/>
   <glyph glyph-name="uni00A0" horiz-adv-x="275" unicode=" "/>
   <glyph glyph-name="Euro" horiz-adv-x="573" unicode="€" d="M297 -10c-142 0 -204 104 -209 239l-73 -3l46 76l29 4l7 46c2 12 7 30 10 45l-62 -3l46 77l40 4c53 131 147 226 282 226c79 0 138 -36 173 -100l-71 -47c-23 39 -64 53 -110 53c-88 0 -150 -59 -188 -139l259 3l-47 -77l-240 -3c-4 -14 -7 -28 -10 -47 c-3 -12 -5 -28 -7 -44l274 4l-46 -77l-228 -3c9 -86 50 -140 133 -140c52 0 95 19 132 60l53 -68c-56 -58 -123 -86 -193 -86z"/>
   <glyph glyph-name="cent" horiz-adv-x="492" unicode="¢" d="M163 -100l19 92c-123 18 -164 133 -142 258c21 117 98 227 226 246l18 90h68l-18 -92c77 -10 125 -60 144 -136l-89 -27c-6 57 -40 86 -95 86c-97 0 -150 -93 -165 -181c-15 -82 2 -167 95 -167c61 0 107 37 133 93l75 -39c-41 -78 -103 -122 -183 -133l-18 -90h-68z"/>
   <glyph glyph-name="currency" horiz-adv-x="554" unicode="¤" d="M92 31l-81 79l96 85c-21 32 -33 70 -33 112s12 80 33 112l-104 78l81 79l79 -98c32 23 71 36 114 36s82 -14 114 -36l86 90l81 -79l-111 -71c21 -31 33 -70 33 -111c0 -42 -13 -81 -33 -112l111 -85l-81 -79l-86 105c-32 -23 -71 -36 -114 -36s-82 13 -114 36zM277 186 c68 0 113 49 113 121s-45 121 -113 121s-113 -49 -113 -121s45 -121 113 -121z"/>
   <glyph glyph-name="dollar" horiz-adv-x="536" unicode="$" d="M162 -120l22 114c-97 14 -175 81 -173 192l96 17c-5 -85 53 -123 131 -123c80 0 139 39 153 118c27 152 -312 112 -274 329c17 94 97 156 187 171l22 112h72l-22 -111c69 -9 122 -45 148 -113l-82 -42c-18 50 -59 72 -107 72c-56 0 -113 -39 -123 -96 c-25 -144 314 -103 274 -331c-20 -114 -117 -188 -230 -196l-22 -113h-72z"/>
   <glyph glyph-name="florin" horiz-adv-x="337" unicode="ƒ" d="M-144 -223l10 80c118 0 174 43 194 151l70 401h-87l14 79h87l13 74c16 87 86 145 159 145c40 0 72 -16 102 -45l-59 -57c-18 18 -33 22 -49 22c-32 0 -65 -23 -74 -71l-12 -68h149l-14 -79h-149l-72 -407c-26 -149 -128 -225 -282 -225z"/>
   <glyph glyph-name="sterling" horiz-adv-x="554" unicode="£" d="M-33 0l12 69s134 82 148 166c6 31 2 73 2 73l-107 -3l13 77h90s-14 58 -1 124c18 106 102 196 228 196c95 0 150 -69 165 -147l-74 -20c-10 56 -44 90 -96 90c-79 0 -136 -53 -150 -133c-9 -56 3 -114 3 -114l233 4l-14 -77h-214s2 -42 -4 -82 c-18 -97 -101 -148 -101 -148l394 2l-13 -77h-514z"/>
   <glyph glyph-name="yen" horiz-adv-x="622" unicode="¥" d="M216 -3l15 83h-147l14 78h146l16 91h-146l14 77h111l-167 364h104l146 -333l266 333h108l-296 -364h109l-13 -77h-147l-16 -91h147l-14 -78h-146l-15 -83h-89z"/>
   <glyph glyph-name="uni2206" horiz-adv-x="578" unicode="∆" d="M11 0l278 710l279 -710h-557zM129 80h321l-161 423z"/>
   <glyph glyph-name="uni2126" horiz-adv-x="746" unicode="Ω" d="M45 0v79h154c-93 60 -152 165 -152 272c0 85 33 174 85 229c61 65 154 107 241 107s180 -42 241 -107c52 -55 85 -144 85 -230c0 -110 -55 -215 -142 -272h144v-78h-263v77c108 26 177 135 177 280c0 64 -22 128 -58 166c-46 51 -118 84 -184 84s-138 -33 -184 -84 c-36 -38 -58 -102 -58 -166c0 -139 69 -247 177 -280v-77h-263z"/>
   <glyph glyph-name="approxequal" horiz-adv-x="466" unicode="≈" d="M310 358c-85 0 -113 70 -163 70c-33 0 -40 -24 -39 -57h-63c0 75 35 120 101 120c99 0 119 -68 167 -68c34 0 42 24 42 65h67c0 -84 -39 -130 -112 -130zM310 190c-85 0 -113 70 -163 70c-33 0 -40 -25 -39 -57h-63c0 74 35 119 101 119c99 0 119 -68 167 -68 c34 0 42 24 42 66h67c0 -84 -39 -130 -112 -130z"/>
   <glyph glyph-name="asciitilde" horiz-adv-x="466" unicode="~" d="M310 185c-85 0 -113 70 -163 70c-33 0 -40 -24 -39 -57h-63c0 74 36 120 101 120c99 0 119 -68 167 -68c34 0 42 23 42 65h67c0 -84 -39 -130 -112 -130z"/>
   <glyph glyph-name="divide" horiz-adv-x="553" unicode="÷" d="M221 380v109h110v-109h-110zM65 225v70h423v-70h-423zM221 23v109h110v-109h-110z"/>
   <glyph glyph-name="equal" horiz-adv-x="535" unicode="=" d="M75 374v81h385v-81h-385zM75 201v81h385v-81h-385z"/>
   <glyph glyph-name="greater" horiz-adv-x="603" unicode="&gt;" d="M98 79l-40 70l345 180l-345 180l40 70l457 -250z"/>
   <glyph glyph-name="greaterequal" horiz-adv-x="659" unicode="≥" d="M112 65l-40 70l344 185l-344 184l40 70l456 -254zM65 -70v70h529v-70h-529z"/>
   <glyph glyph-name="infinity" horiz-adv-x="880" unicode="∞" d="M242 173c-116 0 -184 76 -184 186s68 186 184 186c71 0 144 -40 198 -111c54 71 127 111 198 111c116 0 184 -76 184 -186s-68 -186 -184 -186c-71 0 -144 40 -198 111c-54 -71 -127 -111 -198 -111zM257 249c48 0 105 41 141 110c-36 69 -94 110 -141 110 c-68 0 -113 -40 -113 -110s45 -110 113 -110zM623 249c68 0 113 40 113 110s-45 110 -113 110c-48 0 -105 -41 -141 -110c36 -69 94 -110 141 -110z"/>
   <glyph glyph-name="integral" horiz-adv-x="337" unicode="∫" d="M-52 -223v80c114 0 160 41 160 146v558c0 86 62 146 137 146c36 0 72 -13 103 -40l-52 -60c-18 15 -36 20 -51 20c-29 0 -57 -20 -57 -67v-558c0 -148 -94 -225 -240 -225z"/>
   <glyph glyph-name="less" horiz-adv-x="603" unicode="&lt;" d="M505 79l-457 250l457 250l40 -70l-345 -180l345 -180z"/>
   <glyph glyph-name="lessequal" horiz-adv-x="659" unicode="≤" d="M547 65l-456 255l456 254l40 -70l-344 -184l344 -185zM65 -70v70h529v-70h-529z"/>
   <glyph glyph-name="logicalnot" horiz-adv-x="581" unicode="¬" d="M420 142v164h-356v83h443v-247h-87z"/>
   <glyph glyph-name="uni00B5" horiz-adv-x="563" unicode="µ" d="M70 -130v618h91v-288c0 -65 18 -128 93 -128s138 66 138 140v276h91v-488h-91v68c-25 -38 -79 -79 -146 -79c-34 0 -62 7 -86 21l-9 -140h-81z"/>
   <glyph glyph-name="multiply" horiz-adv-x="626" unicode="×" d="M155 98l-49 49l157 158l-154 154l50 50l154 -154l158 157l49 -49l-157 -158l154 -154l-50 -50l-154 154z"/>
   <glyph glyph-name="notequal" horiz-adv-x="535" unicode="≠" d="M41 0l111 205h-75v77h117l49 92h-166v77h208l129 239h87l-129 -239h86v-77h-128l-49 -92h177v-77h-219l-111 -205h-87z"/>
   <glyph glyph-name="partialdiff" horiz-adv-x="601" unicode="∂" d="M207 -6c-126 0 -196 94 -173 227c30 163 166 293 333 293c50 0 89 -19 112 -45c7 102 -36 148 -110 148c-54 0 -96 -19 -131 -76l-83 29c47 83 127 128 223 128c166 0 213 -134 175 -348c-30 -171 -142 -356 -346 -356zM218 76c118 0 207 107 229 229 c15 79 -15 129 -93 129c-118 0 -212 -117 -232 -229c-12 -76 21 -129 96 -129z"/>
   <glyph glyph-name="percent" horiz-adv-x="746" unicode="%" d="M196 385c-101 0 -116 98 -104 164c11 61 54 152 148 152c91 0 117 -87 103 -165c-12 -71 -63 -151 -147 -151zM91 -3l499 700h82l-499 -700h-82zM197 449c42 0 73 52 81 100c7 43 -2 87 -40 87c-44 0 -74 -50 -83 -99c-7 -43 2 -88 42 -88zM532 -2 c-102 0 -116 99 -104 165c10 61 53 153 148 153c91 0 117 -87 103 -166c-12 -71 -63 -152 -147 -152zM533 62c42 0 72 53 81 102c7 43 -2 87 -41 87c-43 0 -73 -50 -82 -100c-7 -44 2 -89 42 -89z"/>
   <glyph glyph-name="perthousand" horiz-adv-x="1031" unicode="‰" d="M196 385c-101 0 -116 98 -104 164c11 61 54 152 148 152c91 0 117 -87 103 -165c-12 -71 -63 -151 -147 -151zM91 -3l499 700h82l-499 -700h-82zM197 449c42 0 73 52 81 100c7 43 -2 87 -40 87c-44 0 -74 -50 -83 -99c-7 -43 2 -88 42 -88zM532 -2 c-102 0 -116 99 -104 165c10 61 53 153 148 153c91 0 117 -87 103 -166c-12 -71 -63 -152 -147 -152zM831 -2c-102 0 -116 99 -105 165c11 61 54 153 148 153c91 0 118 -87 104 -166c-12 -71 -64 -152 -147 -152zM533 62c42 0 72 53 81 102c7 43 -2 87 -41 87 c-43 0 -73 -50 -82 -100c-7 -44 2 -89 42 -89zM832 62c42 0 72 53 80 102c8 43 -1 87 -40 87c-44 0 -73 -50 -82 -100c-7 -44 2 -89 42 -89z"/>
   <glyph glyph-name="plus" horiz-adv-x="626" unicode="+" d="M278 52v218h-223v70h223v218h70v-218h223v-70h-223v-218h-70z"/>
   <glyph glyph-name="plusminus" horiz-adv-x="626" unicode="±" d="M278 52v218h-223v70h223v218h70v-218h223v-70h-223v-218h-70zM56 -70v70h514v-70h-514z"/>
   <glyph glyph-name="product" horiz-adv-x="576" unicode="∏" d="M85 0v610h-40v80h486v-80h-40v-610h-80v610h-246v-610h-80z"/>
   <glyph glyph-name="radical" horiz-adv-x="580" unicode="√" d="M245 -99l-131 373h-74v80h132l77 -245l223 585l74 -28z"/>
   <glyph glyph-name="summation" horiz-adv-x="582" unicode="∑" d="M19 0v40l281 305l-281 305v40h508v-80h-364l251 -265l-251 -265h364v-80h-508z"/>
   <glyph glyph-name="lozenge" horiz-adv-x="578" unicode="◊" d="M245 0l-183 350l183 350h88l183 -350l-183 -350h-88zM289 89l131 261l-131 261l-131 -261z"/>
   <glyph glyph-name="bar" horiz-adv-x="254" unicode="|" d="M-1 -250l176 999h68l-176 -999h-68z"/>
   <glyph glyph-name="brokenbar" horiz-adv-x="253" unicode="¦" d="M103 357l64 363h72l-64 -363h-72zM14 -150l62 355h72l-62 -355h-72z"/>
   <glyph glyph-name="at" horiz-adv-x="978" unicode="@" d="M493 -170c-242 0 -437 196 -437 435s196 434 437 434c242 0 437 -196 437 -436c0 -137 -65 -293 -227 -293c-76 0 -126 52 -123 125c-38 -43 -94 -67 -151 -67c-105 0 -156 90 -156 185c0 133 81 298 234 298c54 0 107 -30 126 -81l11 57h83c-25 -128 -73 -260 -73 -385 c0 -32 21 -49 52 -49c108 0 145 122 145 213c0 195 -162 355 -358 355s-358 -160 -358 -354s162 -354 358 -354c40 0 78 7 116 19l29 -77c-46 -16 -96 -25 -145 -25zM438 109c110 0 167 124 167 221c0 59 -27 100 -89 100c-110 0 -167 -123 -167 -220c0 -59 27 -101 89 -101 z"/>
   <glyph glyph-name="ampersand" horiz-adv-x="601" unicode="&amp;" d="M509 -31l-78 108c-77 -67 -150 -87 -231 -87c-112 0 -201 54 -180 178c21 112 186 196 205 204c-7 11 -75 89 -60 176c18 95 110 150 201 150c93 0 157 -69 141 -163c-16 -92 -147 -168 -163 -176l98 -139c28 41 51 122 51 122l85 -13c0 -1 -33 -113 -87 -184l90 -123z M299 416c13 7 119 68 130 132c8 41 -25 70 -67 70c-52 0 -104 -29 -114 -84c-8 -48 44 -113 51 -118zM208 70c68 0 126 26 176 71l-120 171c-14 -9 -149 -87 -161 -157c-11 -67 41 -85 105 -85z"/>
   <glyph glyph-name="paragraph" horiz-adv-x="605" unicode="¶" d="M210 0l56 304c-114 0 -210 74 -188 200c21 118 138 186 252 186h85l-122 -690h-83zM381 0l122 690h84l-122 -690h-84z"/>
   <glyph glyph-name="copyright" horiz-adv-x="839" unicode="©" d="M420 -24c-207 0 -375 165 -375 369s168 369 375 369c206 0 374 -165 374 -369s-168 -369 -374 -369zM420 48c163 0 302 136 302 297s-139 297 -302 297c-164 0 -302 -136 -302 -297s138 -297 302 -297zM428 139c-120 0 -180 94 -180 205s60 205 180 205 c74 0 128 -37 160 -104l-67 -28c-20 40 -50 59 -93 59c-76 0 -109 -61 -109 -132s31 -131 108 -131c44 0 74 20 93 59l68 -28c-32 -69 -87 -105 -160 -105z"/>
   <glyph glyph-name="registered" horiz-adv-x="839" unicode="®" d="M420 -23c-207 0 -375 165 -375 369s168 369 375 369c206 0 374 -165 374 -369s-168 -369 -374 -369zM420 45c166 0 306 137 306 301s-140 301 -306 301c-167 0 -307 -137 -307 -301s140 -301 307 -301zM294 145v395h152c88 0 132 -44 132 -118c0 -64 -35 -97 -75 -109 l97 -168h-83l-86 159h-64v-159h-73zM362 371h84c46 0 65 16 65 51c0 36 -18 50 -65 50h-84v-101z"/>
   <glyph glyph-name="section" horiz-adv-x="428" unicode="§" d="M175 -9c-101 0 -171 51 -184 148l78 17c8 -65 49 -86 112 -86c57 0 117 17 128 81c17 98 -290 15 -255 212c6 36 29 72 64 100c-24 21 -35 56 -28 96c16 93 110 141 196 141c90 0 155 -51 166 -137l-79 -14c-6 53 -41 72 -93 72s-105 -26 -115 -82 c-16 -92 290 -10 255 -211c-6 -35 -26 -71 -61 -99c23 -22 33 -57 26 -97c-18 -103 -120 -141 -210 -141zM276 268c41 15 60 41 67 79c12 64 -92 70 -143 82c-37 -14 -62 -43 -68 -80c-11 -59 95 -68 144 -81z"/>
   <glyph glyph-name="trademark" horiz-adv-x="508" unicode="™" d="M115 428l38 214h-71l9 48h196l-9 -48h-71l-38 -214h-54zM275 428l47 262h56l33 -165l92 165h56l-47 -262h-54l30 164l-65 -124h-39l-24 125l-31 -165h-54z"/>
   <glyph glyph-name="degree" horiz-adv-x="406" unicode="°" d="M230 414c-84 0 -140 67 -126 150c14 75 88 136 168 136c84 0 141 -67 126 -150c-13 -75 -88 -136 -168 -136zM232 474c51 0 100 41 108 90c8 42 -24 76 -70 76c-50 0 -99 -41 -108 -90c-7 -42 24 -76 70 -76z"/>
   <glyph glyph-name="asciicircum" horiz-adv-x="578" unicode="^" d="M119 403l244 309l137 -309h-93l-68 156l-124 -156h-96z"/>
   <glyph glyph-name="dagger" horiz-adv-x="394" unicode="†" d="M85 -100l89 505h-108l16 88h108l35 197h88l-35 -197h108l-16 -88h-108l-89 -505h-88z"/>
   <glyph glyph-name="daggerdbl" horiz-adv-x="394" unicode="‡" d="M85 -100l35 197h-108l16 88h108l38 220h-108l16 88h108l35 197h88l-35 -197h108l-16 -88h-108l-38 -220h108l-16 -88h-108l-35 -197h-88z"/>
   <glyph glyph-name="uni02F5" horiz-adv-x="365" unicode="˵" d="M240 488l81 -148h-82h-47l-106 148h107h47z"/>
   <glyph glyph-name="uni02F6" horiz-adv-x="365" unicode="˶" d="M353 488l-158 -148h-86h-47l133 148h158z"/>
   <glyph glyph-name="uni0308" horiz-adv-x="0" unicode="̈" d="M-222 572l15 88h87l-15 -88h-87zM-56 572l15 88h87l-15 -88h-87z"/>
   <glyph glyph-name="uni0307" horiz-adv-x="0" unicode="̇" d="M-9 565c-40 0 -65 34 -58 75c6 34 37 60 73 60c40 0 67 -33 59 -74c-5 -34 -39 -61 -74 -61z"/>
   <glyph glyph-name="gravecomb" horiz-adv-x="0" unicode="̀" d="M-28 546l-106 144h100l81 -144h-75z"/>
   <glyph glyph-name="acutecomb" horiz-adv-x="0" unicode="́" d="M-151 549l132 141h104l-163 -141h-73z"/>
   <glyph glyph-name="uni030B" horiz-adv-x="0" unicode="̋" d="M-327 542l133 148h98l-159 -148h-72zM-164 542l133 148h105l-165 -148h-73z"/>
   <glyph glyph-name="uni0302" horiz-adv-x="0" unicode="̂" d="M-276 536l188 173l131 -173h-80l-62 88l-93 -88h-84z"/>
   <glyph glyph-name="uni030C" horiz-adv-x="0" unicode="̌" d="M-117 528l-130 162h80l61 -84l93 84h84z"/>
   <glyph glyph-name="uni0306" horiz-adv-x="0" unicode="̆" d="M-97 558c-94 0 -146 50 -131 135l70 -6c-8 -45 22 -70 64 -70c47 0 89 31 97 76l70 -6c-16 -87 -81 -129 -170 -129z"/>
   <glyph glyph-name="uni030A" horiz-adv-x="0" unicode="̊" d="M-51 525c-60 0 -98 50 -87 110c9 53 60 95 114 95c58 0 99 -47 89 -108c-10 -54 -61 -97 -116 -97zM-50 579c30 0 58 25 63 56c4 24 -10 41 -37 41c-32 0 -57 -22 -62 -54c-5 -26 11 -43 36 -43z"/>
   <glyph glyph-name="tildecomb" horiz-adv-x="0" unicode="̃" d="M-53 559c-87 0 -95 74 -146 74c-35 0 -54 -32 -59 -70l-62 7c13 76 55 123 120 123c96 0 99 -76 148 -76c36 0 55 31 63 76l66 -6c-15 -86 -61 -128 -130 -128z"/>
   <glyph glyph-name="uni0304" horiz-adv-x="0" unicode="̄" d="M-244 573l12 64h266l-11 -64h-267z"/>
   <glyph glyph-name="uni030F" horiz-adv-x="0" unicode="̏" d="M-197 542l-106 148h107l81 -148h-82zM-31 542l-105 148h107l80 -148h-82z"/>
   <glyph glyph-name="uni0312" horiz-adv-x="0" unicode="̒" d="M-118 696l-90 -148h-110l142 148h58z"/>
   <glyph glyph-name="uni031B" horiz-adv-x="0" unicode="̛" d="M-109 488l98 202h110l-150 -202h-58z"/>
   <glyph glyph-name="uni0326" horiz-adv-x="0" unicode="̦" d="M-265 -219l90 165h110l-142 -165h-58z"/>
   <glyph glyph-name="uni0327" horiz-adv-x="0" unicode="̧" d="M-184 -244c-47 0 -76 32 -83 67l54 19c1 -16 12 -28 30 -28c22 0 48 19 53 45c3 16 -11 25 -33 33l-63 18l66 90h67l-57 -63c57 -16 84 -46 76 -89c-9 -53 -61 -92 -110 -92z"/>
   <glyph glyph-name="uni0328" horiz-adv-x="0" unicode="̨" d="M-183 -220c-62 0 -99 43 -88 107c12 72 101 107 127 114l61 -1c-4 -1 -118 -42 -131 -117c-5 -31 9 -43 29 -43c28 0 48 13 65 33l46 -39c-29 -33 -62 -54 -109 -54z"/>
   <glyph glyph-name="HankenDesign" d="M453 -30c-209 0 -378 169 -378 378s169 378 378 378s378 -169 378 -378s-169 -378 -378 -378zM453 5c190 0 343 153 343 343s-153 343 -343 343s-343 -153 -343 -343s153 -343 343 -343zM256 200c-9 0 -17 7 -17 17v262c0 10 8 18 17 18c10 0 18 -8 18 -18v-262 c0 -10 -8 -17 -18 -17zM453 200c-10 0 -17 7 -17 17v262c0 10 7 18 17 18s17 -8 17 -18v-262c0 -10 -7 -17 -17 -17zM649 200c-4 0 -8 1 -11 5l-132 131c-3 4 -4 8 -4 12c0 5 1 9 4 12l132 131c3 4 7 6 11 6c9 0 18 -9 18 -18c0 -4 -1 -8 -5 -12l-119 -119l119 -119 c4 -4 5 -8 5 -12c0 -9 -9 -17 -18 -17zM322 331c-10 0 -17 7 -17 17s7 17 17 17h65c10 0 18 -7 18 -17s-8 -17 -18 -17h-65z" horiz-adv-x="906"/>
   </font>
</defs>
</svg>
